<?xml version="1.0" standalone="no"?>
<!DOCTYPE svg PUBLIC "-//W3C//DTD SVG 1.1//EN" "http://www.w3.org/Graphics/SVG/1.1/DTD/svg11.dtd" >
<!--
2013-9-30: Created.
-->
<svg>
<metadata>
Created by iconfont
</metadata>
<defs>

<font id="iconfont" horiz-adv-x="1024" >
  <font-face
    font-family="iconfont"
    font-weight="500"
    font-stretch="normal"
    units-per-em="1024"
    ascent="896"
    descent="-128"
  />
    <missing-glyph />
    
    <glyph glyph-name="disconnect" unicode="&#58914;" d="M900.1 771.9c-79.6 79.6-208.8 79.6-288.4 0L432 592.2c-14.2-14.2-14.2-37.1 0-51.1 14.2-14.2 37.1-14.2 51.1 0l179.7 179.7c51.3 51.3 134.8 51.3 186.1 0 24.8-24.8 38.6-57.9 38.6-93 0-35.2-13.7-68.2-38.6-93L669.3 355.1c-14.2-14.2-14.2-37.1 0-51.1 7-7 16.3-10.5 25.6-10.5s18.5 3.5 25.6 10.5l179.7 179.7c79.5 79.4 79.5 208.8-0.1 288.2zM376.6 614.8c19.9-0.1 36.1 16.1 36.1 36.1l-0.1 144.9c0.1 19.9-16.1 36.1-36.1 36.1-19.9 0.1-36.1-16.1-36.1-36.1v-145c0.1-10 4-18.9 10.7-25.4 6.5-6.5 15.6-10.6 25.5-10.6zM809.1 139c-7.2 7-16.2 10.5-25.5 10.4-9.3 0-18.6-3.5-25.6-10.5-14.2-14-14.2-36.9 0-51.1l102.5-102.4c14-14.2 36.9-14.2 51.1 0 14.2 14 14.2 36.9 0 51.1L809.1 139z m114.5 145.9h-145c-10-0.1-18.9-4-25.4-10.7-6.6-6.6-10.7-15.6-10.7-25.5-0.1-19.9 16.1-36.1 36.1-36.1l144.9 0.1c19.9-0.1 36.1 16.1 36.1 36.1 0.2 19.9-16 36.1-36 36.1zM647.7 153c-19.9 0.1-36.1-16.1-36.1-36.1l0.1-144.9c-0.1-19.9 16.1-36.1 36.1-36.1 19.9-0.1 36.1 16.1 36.1 36.1V117c-0.1 10-4 18.9-10.7 25.4-6.5 6.5-15.6 10.6-25.5 10.6z m-106.9 73.6L361.2 46.9c-24.8-24.8-57.9-38.6-93-38.6-35.2 0-68.2 13.7-93 38.6-24.8 24.9-38.7 57.9-38.7 93 0 35.2 13.7 68.2 38.6 93l179.7 179.7c14.2 14.2 14.2 37.1 0 51.1-14.2 14.2-37.1 14.2-51.1 0L124 284.2C85.4 245.6 64.2 194.4 64.2 140S85.4 34.3 124-4.1c39.8-39.8 92-59.7 144.1-59.7 52.2 0 104.5 19.9 144.1 59.7L592 175.5c14.2 14.2 14.2 37.1 0 51.1-14.2 14.1-37 14.1-51.2 0zM215.2 628.8c7.2-7 16.2-10.5 25.5-10.4 9.3 0 18.6 3.5 25.6 10.5 14.2 14 14.2 36.9 0 51.1L163.8 782.3c-14 14.2-36.9 14.2-51.1 0-14.2-14-14.2-36.9 0-51.1l102.5-102.4z m-114.5-146h145c10 0.1 18.9 4 25.4 10.7 6.6 6.6 10.7 15.6 10.7 25.5 0.1 19.9-16.1 36.1-36.1 36.1l-144.9-0.1c-19.9 0.1-36.1-16.1-36.1-36.1-0.3-19.9 15.9-36.1 36-36.1z"  horiz-adv-x="1024" />

    
    <glyph glyph-name="API" unicode="&#58931;" d="M952 722.3L768.7 827.7c-4.9 2.8-10.4 4.2-15.8 4.2s-10.9-1.4-15.8-4.2L553.8 722.3c-9.8-5.7-15.8-16.1-15.8-27.5v-8.9l-10.1 5.8c-4.9 2.8-10.4 4.2-15.8 4.2s-10.9-1.4-15.8-4.2l-10.2-5.9v9c0 11.3-6.1 21.8-15.9 27.5L286.8 827.7c-4.9 2.8-10.4 4.2-15.8 4.2s-10.9-1.4-15.8-4.2L71.9 722.3C62 716.6 56 706.2 56 694.8v-211.6c0-11.3 6-21.8 15.9-27.5l183.3-105.4c4.9-2.8 10.3-4.2 15.8-4.2s10.9 1.4 15.8 4.2l10.2 5.9v-9c0-11.3 6.1-21.8 15.9-27.5l6.5-3.7-6.5-3.7c-9.8-5.7-15.9-16.1-15.9-27.5v-211.6c0-11.3 6.1-21.8 15.9-27.5l183.3-105.4c4.9-2.8 10.4-4.2 15.8-4.2s10.9 1.4 15.8 4.2l183.3 105.4c9.8 5.7 15.9 16.1 15.9 27.5V284.7c0 11.3-6.1 21.8-15.9 27.5l-6.5 3.7 6.5 3.7c9.8 5.7 15.9 16.1 15.9 27.5V356l10.1-5.8c4.9-2.8 10.4-4.2 15.8-4.2s10.9 1.4 15.8 4.2L952 455.7c9.8 5.7 16 16.1 16 27.5V694.8c0 11.4-6.1 21.8-16 27.5z m-681-298l-143 82.2v165l143 82.2 143-82.2v-27.1l-101.1-58.1c-9.8-5.7-15.9-16.1-15.9-27.5v-119.6l-26-14.9z m143 167v-84.9l-71-40.8v84.9l71 40.8z m241-329.9v-165l-143-82.2-143 82.2v165l22.6 13 104.6-60.1c4.9-2.8 10.4-4.2 15.8-4.2s10.9 1.4 15.8 4.2l104.6 60.1 22.6-13zM437.8 301l74.2 42.7 74.2-42.7-74.2-42.7-74.2 42.7zM681 355.4l-22.5-13-130.7 75.1c-4.9 2.8-10.4 4.2-15.8 4.2s-10.9-1.4-15.8-4.2l-130.7-75.1-22.5 13v27.2l127.1 73.1c9.8 5.7 15.9 16.1 15.9 27.5V632.7l26.1 15 25.9-14.9v-149.7c0-11.3 6-21.8 15.8-27.5L681 382.5v-27.1z m0 110.2l-71 40.9v85l71-40.9v-85z m215 40.9l-143.1-82.2-25.9 14.8V558.8c0 11.3-6 21.8-15.8 27.5L610 644.5v27l143 82.2 143-82.2v-165z"  horiz-adv-x="1024" />

    
    <glyph glyph-name="appstore-o" unicode="&#58932;" d="M398 760v-262H136V760h262m0 72H136c-39.8 0-72-32.2-72-72v-262c0-39.8 32.2-72 72-72h262c39.8 0 72 32.2 72 72V760c0 39.8-32.2 72-72 72z m490-72v-262H626V760h262m0 72H626c-39.8 0-72-32.2-72-72v-262c0-39.8 32.2-72 72-72h262c39.8 0 72 32.2 72 72V760c0 39.8-32.2 72-72 72zM398 270v-262H136V270h262m0 72H136c-39.8 0-72-32.2-72-72v-262c0-39.8 32.2-72 72-72h262c39.8 0 72 32.2 72 72V270c0 39.8-32.2 72-72 72z m490-72v-262H626V270h262m0 72H626c-39.8 0-72-32.2-72-72v-262c0-39.8 32.2-72 72-72h262c39.8 0 72 32.2 72 72V270c0 39.8-32.2 72-72 72z"  horiz-adv-x="1024" />

    
    <glyph glyph-name="areachart" unicode="&#58933;" d="M923-64H99c-19.9 0-36 16.1-36 36V797c0 19.9 16.1 36 36 36s36-16.1 36-36v-789h788c19.9 0 36-16.1 36-36s-16.1-36-36-36zM192.5 96.2L309.2 305c5.4 9.7 17.4 13.5 27.4 8.9l111.2-51.7L566.3 433c6 8.7 17.6 11.6 27 6.8L702.8 384l160.3 251.2c9.3 14.6 31.9 8 31.9-9.3v-520.1c0-21.3-17.3-38.6-38.6-38.6h-646c-15-0.1-24.6 15.7-17.9 29z"  horiz-adv-x="1024" />

    
    <glyph glyph-name="appstore" unicode="&#58935;" d="M398 832H136c-39.8 0-72-32.2-72-72v-262c0-39.8 32.2-72 72-72h262c39.8 0 72 32.2 72 72V760c0 39.8-32.2 72-72 72z m490 0H626c-39.8 0-72-32.2-72-72v-262c0-39.8 32.2-72 72-72h262c39.8 0 72 32.2 72 72V760c0 39.8-32.2 72-72 72zM398 342H136c-39.8 0-72-32.2-72-72v-262c0-39.8 32.2-72 72-72h262c39.8 0 72 32.2 72 72V270c0 39.8-32.2 72-72 72z m490 0H626c-39.8 0-72-32.2-72-72v-262c0-39.8 32.2-72 72-72h262c39.8 0 72 32.2 72 72V270c0 39.8-32.2 72-72 72z"  horiz-adv-x="1024" />

    
    <glyph glyph-name="arrowdown" unicode="&#58936;" d="M558 724.8v-573.7c0-0.1 0.2-0.2 0.2-0.1l208 216.4c16.8 17.5 44.7 18.1 62.2 1.2 17.5-16.8 18.1-44.7 1.2-62.2L546.5 11.8c-8.3-8.6-19.8-13.5-31.7-13.5-12 0-23.4 4.9-31.7 13.5L198.3 308c-8.2 8.5-12.3 19.5-12.3 30.5 0 11.6 4.5 23.1 13.5 31.7 17.5 16.8 45.4 16.3 62.2-1.2l208-216.4c0.1-0.1 0.2 0 0.2 0.1V725.8c0 23.4 18.3 42.5 41.3 43.9 25.6 1.5 46.8-19.4 46.8-44.9z"  horiz-adv-x="1024" />

    
    <glyph glyph-name="arrowleft" unicode="&#58937;" d="M854.8 428H281.1c-0.1 0-0.2 0.2-0.1 0.2l216.4 208c17.5 16.8 18.1 44.7 1.2 62.2-16.8 17.5-44.7 18.1-62.2 1.2L141.8 416.5c-8.6-8.3-13.5-19.8-13.5-31.7 0-12 4.9-23.4 13.5-31.7L438 68.4c8.5-8.2 19.5-12.3 30.5-12.3 11.6 0 23.1 4.5 31.7 13.5 16.8 17.5 16.3 45.4-1.2 62.2l-216.4 208c-0.1 0.1 0 0.2 0.1 0.2h573.1c23.4 0 42.5 18.3 43.9 41.3 1.5 25.5-19.4 46.7-44.9 46.7z"  horiz-adv-x="1024" />

    
    <glyph glyph-name="arrowright" unicode="&#58938;" d="M173.2 428h573.7c0.1 0 0.2 0.2 0.1 0.2l-216.4 208c-17.5 16.8-18.1 44.7-1.2 62.2 16.8 17.5 44.7 18.1 62.2 1.2l294.7-283.2c8.6-8.3 13.5-19.8 13.5-31.7 0-12-4.9-23.4-13.5-31.7L590 68.3c-8.5-8.2-19.5-12.3-30.5-12.3-11.6 0-23.1 4.5-31.7 13.5-16.8 17.5-16.3 45.4 1.2 62.2l216.4 208c0.1 0.1 0 0.2-0.1 0.2H172.2c-23.4 0-42.5 18.3-43.9 41.3-1.5 25.6 19.4 46.8 44.9 46.8z"  horiz-adv-x="1024" />

    
    <glyph glyph-name="arrowsalt" unicode="&#58939;" d="M429.9 23.2H218.7l232.1 232.1c17.2 17.2 17.2 45 0 62.2-17.2 17.2-45 17.2-62.2 0L152.8 81.8V291.2c0 24.3-19.7 44-44 44s-44-19.7-44-44v-312c0-24.3 19.7-44 44-44h321c24.3 0 44 19.7 44 44s-19.6 44-43.9 44z m486 808h-321c-24.3 0-44-19.7-44-44s19.7-44 44-44H806l-232.1-232c-17.2-17.2-17.2-45 0-62.2 8.6-8.6 19.9-12.9 31.1-12.9 11.3 0 22.5 4.3 31.1 12.9l235.7 235.7v-209.4c0-24.3 19.7-44 44-44s44 19.7 44 44v312c0.1 24.2-19.6 43.9-43.9 43.9z"  horiz-adv-x="1024" />

    
    <glyph glyph-name="arrowup" unicode="&#58940;" d="M470 43.2V616.9c0 0.1-0.2 0.2-0.2 0.1l-208-216.4c-16.8-17.5-44.7-18.1-62.2-1.2-17.5 16.8-18.1 44.7-1.2 62.2l283.2 294.7c8.3 8.6 19.8 13.5 31.7 13.5 12 0 23.4-4.9 31.7-13.5L829.7 460c8.2-8.5 12.3-19.5 12.3-30.5 0-11.6-4.5-23.1-13.5-31.7-17.5-16.8-45.4-16.3-62.2 1.2l-208 216.4c-0.1 0.1-0.2 0-0.2-0.1v-573.1c0-23.4-18.3-42.5-41.3-43.9-25.6-1.5-46.8 19.4-46.8 44.9z"  horiz-adv-x="1024" />

    
    <glyph glyph-name="banckward" unicode="&#58941;" d="M448.975 789.9l-436.3-375.5c-16.9-15.7-16.9-43.3 0-59l436.2-377.3c24.4-22.8 63.1-4.7 63.1 29.5V760.4c0.1 34.1-38.6 52.2-63 29.5z m512 0l-436.3-375.5c-8.4-7.9-12.6-18.7-12.6-29.5s4.2-21.6 12.6-29.5l436.2-377.3c24.4-22.8 63.1-4.7 63.1 29.5V760.4c0.1 34.1-38.6 52.2-63 29.5z"  horiz-adv-x="1025" />

    
    <glyph glyph-name="barchart" unicode="&#58942;" d="M923-64H99c-19.9 0-36 16.1-36 36V796c0 19.9 16.1 36 36 36s36-16.1 36-36v-788h788c19.9 0 36-16.1 36-36s-16.1-36-36-36zM264.2 523c-39.3-0.9-71.4-33.1-72.2-72.4-0.6-30.1 16.7-56.2 42-68.3V97c0-17.7 14.3-32 32-32s32 14.3 32 32V382.3c24.8 11.9 42 37.3 42 66.7 0 41.5-34.1 75-75.8 74z m277.5 118c-39.3-0.9-71.4-33.1-72.2-72.4-0.6-30.1 16.7-56.2 42-68.3V97c0-17.7 14.3-32 32-32s32 14.3 32 32V500.3c24.8 11.9 42 37.3 42 66.7 0 41.5-34.1 75-75.8 74zM895 438c0 41.5-34.1 75-75.8 74-39.3-0.9-71.4-33.1-72.2-72.4-0.6-30.1 16.7-56.2 42-68.3V97c0-17.7 14.3-32 32-32s32 14.3 32 32V371.3c24.8 11.9 42 37.3 42 66.7z"  horiz-adv-x="1024" />

    
    <glyph glyph-name="bank" unicode="&#58943;" d="M939.6 418.9L538 820.5c-7 7-16.2 10.5-25.5 10.5-9.2 0-18.4-3.5-25.5-10.5L85.5 418.9c-14.1-14.1-14.1-36.9 0-50.9 14.1-14.1 36.9-14.1 50.9 0l376.2 376.2L888.7 368c14.1-14.1 36.9-14.1 50.9 0 14.1 14.1 14.1 36.8 0 50.9zM828 292c-19.9 0-36-16.1-36-36v-248H232V256c0 19.9-16.1 36-36 36s-36-16.1-36-36v-248c0-39.8 32.2-72 72-72h560c39.8 0 72 32.2 72 72V256c0 19.9-16.1 36-36 36z m-508 66v-4c0-18.8 15.2-34 34-34h122v-64h-90c-18.8 0-34-15.2-34-34v-4c0-18.8 15.2-34 34-34h90v-84c0-19.9 16.1-36 36-36s36 16.1 36 36v84h90c18.8 0 34 15.2 34 34v4c0 18.8-15.2 34-34 34h-90v64h122c18.8 0 34 15.2 34 34v4c0 18.8-15.2 34-34 34H535.1c0.7 0.6 1.4 1.2 2.1 1.9l84.9 84.9c14.1 14.1 14.1 36.9 0 50.9-14.1 14.1-36.9 14.1-50.9 0l-59.4-59.4-59.4 59.4c-14.1 14.1-36.9 14.1-50.9 0-14.1-14.1-14.1-36.9 0-50.9l84.9-84.9c0.7-0.7 1.4-1.3 2.1-1.9H354c-18.8 0-34-15.2-34-34z"  horiz-adv-x="1024" />

    
    <glyph glyph-name="barcode" unicode="&#58944;" d="M706 128h70c0.5 0 1 0.4 1 1V767c0 0.5-0.4 1-1 1h-70c-0.5 0-1-0.4-1-1v-638c0-0.6 0.4-1 1-1z m-172-56h-70c-0.5 0-1-0.4-1-1v-70c0-0.5 0.4-1 1-1h70c0.5 0 1 0.4 1 1v70c0 0.6-0.4 1-1 1z m106 0h-70c-0.5 0-1-0.4-1-1v-70c0-0.5 0.4-1 1-1h70c0.5 0 1 0.4 1 1v70c0 0.6-0.4 1-1 1z m-212 0H214c-0.6 0-1-0.4-1-1v-70c0-0.5 0.4-1 1-1h214c0.6 0 1 0.4 1 1v70c0 0.6-0.4 1-1 1z m242 696h-34c-0.5 0-1-0.4-1-1v-638c0-0.5 0.4-1 1-1h34c0.5 0 1 0.4 1 1V767c0 0.6-0.4 1-1 1z m-457-1c0 0.5-0.4 1-1 1h-34c-0.5 0-1-0.4-1-1v-638c0-0.5 0.4-1 1-1h34c0.5 0 1 0.4 1 1V767z m810 1h-70c-0.5 0-1-0.4-1-1v-766c0-0.5 0.4-1 1-1h70c0.5 0 1 0.4 1 1V767c0 0.5-0.4 1-1 1zM916 72H676c-0.6 0-1-0.4-1-1v-70c0-0.5 0.4-1 1-1h240c0.6 0 1 0.4 1 1v70c0 0.6-0.4 1-1 1z m0 696h-34c-0.5 0-1-0.4-1-1v-638c0-0.5 0.4-1 1-1h34c0.5 0 1 0.4 1 1V767c0 0.6-0.4 1-1 1zM108 128h34c0.5 0 1 0.4 1 1V767c0 0.5-0.4 1-1 1h-34c-0.5 0-1-0.4-1-1v-638c0-0.6 0.4-1 1-1z m246 0h34c0.5 0 1 0.4 1 1V767c0 0.5-0.4 1-1 1h-34c-0.5 0-1-0.4-1-1v-638c0-0.6 0.4-1 1-1z m70 0h70c0.5 0 1 0.4 1 1V767c0 0.5-0.4 1-1 1h-70c-0.5 0-1-0.4-1-1v-638c0-0.6 0.4-1 1-1z m106 0h70c0.5 0 1 0.4 1 1V767c0 0.5-0.4 1-1 1h-70c-0.5 0-1-0.4-1-1v-638c0-0.6 0.4-1 1-1z m282 0h34c0.5 0 1 0.4 1 1V767c0 0.5-0.4 1-1 1h-34c-0.5 0-1-0.4-1-1v-638c0-0.6 0.4-1 1-1zM71 768H1c-0.5 0-1-0.4-1-1v-766c0-0.5 0.4-1 1-1h70c0.5 0 1 0.4 1 1V767c0 0.5-0.4 1-1 1z m107-696h-70c-0.5 0-1-0.4-1-1v-70c0-0.5 0.4-1 1-1h70c0.5 0 1 0.4 1 1v70c0 0.6-0.4 1-1 1z m70 56h70c0.5 0 1 0.4 1 1V767c0 0.5-0.4 1-1 1h-70c-0.5 0-1-0.4-1-1v-638c0-0.6 0.4-1 1-1z"  horiz-adv-x="1024" />

    
    <glyph glyph-name="bars" unicode="&#58945;" d="M123.8 639.2a63 63 0 1 1 126 0 63 63 0 1 1-126 0z m731.9-29H357.9c-19.9 0-36.1 16.2-36.1 36.1 0 19.9 16.2 36.1 36.1 36.1h497.9c19.9 0 36.1-16.2 36.1-36.1-0.1-20-16.2-36.1-36.2-36.1zM123.8 384a63 63 0 1 1 126 0 63 63 0 1 1-126 0z m731.9-29.1H357.9c-19.9 0-36.1 16.2-36.1 36.1 0 19.9 16.2 36.1 36.1 36.1h497.9c19.9 0 36.1-16.2 36.1-36.1-0.1-19.9-16.2-36.1-36.2-36.1zM123.8 128.8a63 63 0 1 1 126 0 63 63 0 1 1-126 0z m731.9-29.1H357.9c-19.9 0-36.1 16.2-36.1 36.1 0 19.9 16.2 36.1 36.1 36.1h497.9c19.9 0 36.1-16.2 36.1-36.1-0.1-20-16.2-36.1-36.2-36.1z"  horiz-adv-x="1024" />

    
    <glyph glyph-name="barschart" unicode="&#58946;" d="M202.6 730v-696c0-19.9-16.1-36-36-36s-36 16.1-36 36V730c0 19.9 16.1 36 36 36s36-16.1 36-36z m-36-660h694c19.9 0 36-16.1 36-36s-16.1-36-36-36h-694c-19.9 0-36 16.1-36 36s16.1 36 36 36z m227.2 467v-371c0-19.9-16.1-36-36-36s-36 16.1-36 36V537c0 19.9 16.1 36 36 36s36-16.1 36-36z m383.5 130v-501c0-19.9-16.1-36-36-36s-36 16.1-36 36V667c0 19.9 16.1 36 36 36s36-16.1 36-36zM584.6 411v-245c0-19.9-16.1-36-36-36s-36 16.1-36 36V411c0 19.9 16.1 36 36 36 19.8 0 36-16.1 36-36z"  horiz-adv-x="1024" />

    
    <glyph glyph-name="bells" unicode="&#58947;" d="M860 64h-28V512c0 164.6-124.2 300.1-284 318V860c0 19.9-16.1 36-36 36s-36-16.1-36-36v-30C316.2 812.1 192 676.6 192 512v-448h-28c-19.9 0-36-16.1-36-36s16.1-36 36-36h276v-48c0-39.8 32.2-72 72-72s72 32.2 72 72v48h276c19.9 0 36 16.1 36 36s-16.1 36-36 36z m-100 0H264V512c0 137 111 248 248 248s248-111 248-248v-448z"  horiz-adv-x="1024" />

    
    <glyph glyph-name="bulb" unicode="&#58948;" d="M640-56H384c-19.9 0-36-16.1-36-36s16.1-36 36-36h256c19.9 0 36 16.1 36 36s-16.1 36-36 36z m256 578C896 728.6 724.1 896 512 896S128 728.6 128 522c0-138.4 77.2-259.3 192-323.9V136c0-39.8 32.2-72 72-72h240c39.8 0 72 32.2 72 72v62.1C818.8 262.7 896 383.6 896 522zM733.3 309.1c-28.7-27.9-62-49.8-99.2-65.2-0.7-0.3-1.4-0.5-2-0.8V136H392V243.1c-0.7 0.3-1.4 0.5-2 0.8-37.2 15.3-70.6 37.2-99.2 65.2-28.5 27.8-50.9 60.1-66.5 96-16.1 37-24.2 76.3-24.2 116.9s8.1 79.9 24.2 116.9c15.6 35.9 38 68.2 66.5 96 28.7 27.9 62 49.8 99.2 65.2 38.6 15.9 79.7 24 122 24 42.4 0 83.4-8.1 122-24 37.2-15.3 70.6-37.2 99.2-65.2 28.5-27.8 50.9-60.1 66.5-96 16.1-37 24.2-76.3 24.2-116.9s-8.1-79.9-24.2-116.9c-15.5-35.9-37.9-68.2-66.4-96z"  horiz-adv-x="1024" />

    
    <glyph glyph-name="book" unicode="&#58949;" d="M822.5 832.5h-618c-39.8 0-72-32.2-72-72v-753.1c0-39.8 32.2-72 72-72h618.1c39.8 0 72 32.2 72 72V760.5c-0.1 39.8-32.4 72-72.1 72z m-331.9-72v-209.9l-8.7 8.7-33.3 33.3c-9.5 9.5-25 9.6-34.6 0.1l-44.4-43.9V760.5h121z m-193 0v-277.3c0-19.7 15.9-35.6 35.6-35.6 23.3 0 45.7 9.2 62.3 25.6l35.5 35.2 34.9-34.9c15.9-15.9 37.3-25.2 59.8-25.9h1.4c19.7 0 35.6 15.9 35.6 35.6V760.5h259.9v-624.3h-618V760.5h93z m-93.1-753.1v56.8h618v-56.8h-618z"  horiz-adv-x="1024" />

    
    <glyph glyph-name="calculator" unicode="&#58950;" d="M856.6 832H167.5c-21.3 0-38.7-17.5-38.7-38.8v-818.3c0-21.4 17.4-38.9 38.7-38.9h689.1c21.3 0 38.7 17.5 38.7 38.9V793.2c-0.1 21.4-17.4 38.8-38.7 38.8z m-38.7-818.3H206.1V754.3h611.7l0.1-740.6zM323.7 409.9h377.5c21.3 0 38.7 17.4 38.7 38.7V634c0 21.3-17.4 38.7-38.7 38.7H323.7c-21.3 0-38.7-17.4-38.7-38.7v-185.2c0-21.5 17.4-38.9 38.7-38.9z m38.6 185.4h300.2v-107.9H362.3V595.3zM293 189h23.5v-23.5c0-21.3 17.4-38.7 38.7-38.7 21.3 0 38.7 17.4 38.7 38.7V189h23.4c21.3 0 38.7 17.4 38.7 38.7 0 21.3-17.4 38.7-38.7 38.7h-23.4v23.4c0 21.3-17.4 38.7-38.7 38.7-21.3 0-38.7-17.4-38.7-38.7v-23.4H293c-21.3 0-38.7-17.4-38.7-38.7 0.1-21.3 17.5-38.7 38.7-38.7z m313.6 139.4c-21.3 0-38.7-17.4-38.7-38.7 0-21.3 17.4-38.7 38.7-38.7H731c21.3 0 38.7 17.4 38.7 38.7 0 21.3-17.4 38.7-38.7 38.7H606.6zM731 161.6H606.6c-21.3 0-38.7-17.4-38.7-38.7s17.4-38.7 38.7-38.7H731c21.3 0 38.7 17.4 38.7 38.7s-17.5 38.7-38.7 38.7z"  horiz-adv-x="1024" />

    
    <glyph glyph-name="camera-o" unicode="&#58951;" d="M511.2 163.9c95.9 0 173.9 78 173.9 173.9s-78 173.9-173.9 173.9-173.9-78-173.9-173.9c0.1-95.9 78.1-173.9 173.9-173.9z m-72.5 246.4c19.4 19.4 45.1 30.1 72.5 30.1s53.1-10.7 72.5-30.1c19.4-19.4 30.1-45.1 30.1-72.5s-10.7-53.1-30.1-72.5c-19.4-19.4-45.1-30.1-72.5-30.1s-53.1 10.7-72.5 30.1c-19.4 19.4-30.1 45.1-30.1 72.5 0 27.3 10.7 53.1 30.1 72.5zM899 659H730.7l-93.9 99.6-0.4 0.4c-6.7 6.2-16.4 9.7-26.7 9.7H413.9c-10.3 0-20-3.6-26.6-9.8l-0.2-0.2-94.3-99.7H125c-34.9 0-63.3-28.4-63.3-63.3v-531.9c0-34.9 28.4-63.3 63.3-63.3h774c34.9 0 63.3 28.4 63.3 63.3V595.7c0 34.9-28.4 63.3-63.3 63.3z m-471.2 37h168l34.8-37H392.9l34.9 37z m453.6-614.8h-739v497h739v-497z"  horiz-adv-x="1024" />

    
    <glyph glyph-name="calendar" unicode="&#58952;" d="M888 768H768v28c0 19.9-16.1 36-36 36s-36-16.1-36-36v-28H328v28c0 19.9-16.1 36-36 36s-36-16.1-36-36v-28H136c-39.8 0-72-32.2-72-72v-688c0-39.8 32.2-72 72-72h752c39.8 0 72 32.3 72 72V696c0 39.8-32.2 72-72 72z m-752-72h120v-20c0-19.9 16.1-36 36-36s36 16.1 36 36v20h368v-20c0-19.9 16.1-36 36-36s36 16.1 36 36v20h120v-112H136V696z m752-688H136V512h752v-504zM288 384h64c17.7 0 32-14.3 32-32s-14.3-32-32-32h-64c-17.7 0-32 14.3-32 32s14.3 32 32 32z m192 0h64c17.7 0 32-14.3 32-32s-14.3-32-32-32h-64c-17.7 0-32 14.3-32 32s14.3 32 32 32z m192 0h64c17.7 0 32-14.3 32-32s-14.3-32-32-32h-64c-17.7 0-32 14.3-32 32s14.3 32 32 32zM288 190h64c17.7 0 32-14.3 32-32s-14.3-32-32-32h-64c-17.7 0-32 14.3-32 32s14.3 32 32 32z m192 0h64c17.7 0 32-14.3 32-32s-14.3-32-32-32h-64c-17.7 0-32 14.3-32 32s14.3 32 32 32z"  horiz-adv-x="1024" />

    
    <glyph glyph-name="car" unicode="&#58953;" d="M952 448h8l-49.5 241.5c-8 39-46.7 70.5-86.5 70.5H200c-39.8 0-78.5-31.6-86.5-70.5L64 448h8c-39.8 0-72-32.2-72-72v-176c0-37.1 28-67.6 64-71.6v-0.4c0-70.7 57.3-128 128-128s128 57.3 128 128h384c0-70.7 57.3-128 128-128s128 57.3 128 128v0.4c36 4 64 34.5 64 71.6V376c0 39.8-32.2 72-72 72zM182 688h656l50-240H136l46 240z m770-488h-64v-72c0-30.9-25.1-56-56-56s-56 25.1-56 56v72H248v-72c0-30.9-25.1-56-56-56s-56 25.1-56 56v72H72V376h880v-176z m-796 88a36 36 0 1 1 72 0 36 36 0 1 1-72 0z m640 0a36 36 0 1 1 72 0 36 36 0 1 1-72 0z"  horiz-adv-x="1024" />

    
    <glyph glyph-name="caret-circle-o-up" unicode="&#58954;" d="M511.6 894.8C229.2 894.8 0.2 665.8 0.2 383.4s229-511.4 511.4-511.4S1023 101 1023 383.4 794 894.8 511.6 894.8zM828 67c-41.1-41.1-89-73.4-142.2-95.9C630.6-52.2 572-64 511.6-64c-60.4 0-119 11.8-174.1 35.1-53.3 22.5-101.1 54.8-142.2 95.9-41.1 41.1-73.4 89-95.9 142.2C76 264.4 64.2 323 64.2 383.4s11.8 119 35.1 174.1c22.5 53.3 54.8 101.1 95.9 142.2 41.1 41.1 89 73.4 142.2 95.9C392.6 819 451.2 830.8 511.6 830.8c60.4 0 119-11.8 174.1-35.1 53.3-22.5 101.1-54.8 142.2-95.9 41.1-41.1 73.4-89 95.9-142.2 23.3-55.1 35.1-113.7 35.1-174.1s-11.8-119-35.1-174.1C901.3 156 869.1 108.2 828 67zM528.3 559.2c-4.4 4.6-10.3 7.2-16.7 7.2h-0.1c-6.4 0-12.4-2.5-16.8-7.1l-228.5-244c-6.6-6.8-8.4-16.5-4.7-25.4 3.7-8.9 12-14.4 21.6-14.4H740c9.6 0 17.9 5.5 21.6 14.4 3.7 8.8 1.8 18.5-4.9 25.4L528.3 559.2z"  horiz-adv-x="1024" />

    
    <glyph glyph-name="caretdown" unicode="&#58955;" d="M76.3 503.7l403.1-489.1c16.9-18.9 46.5-18.9 63.4 0l405.1 489.1c24.4 27.4 5 70.8-31.7 70.8H108.1c-36.8 0-56.3-43.4-31.8-70.8z"  horiz-adv-x="1024" />

    
    <glyph glyph-name="caretright" unicode="&#58956;" d="M392.7 819.7l489.1-403.1c18.9-16.9 18.9-46.5 0-63.4L392.7-51.7c-27.4-24.4-70.8-5-70.8 31.7V788.1c0.1 36.6 43.4 56.1 70.8 31.6z"  horiz-adv-x="1024" />

    
    <glyph glyph-name="caretleft" unicode="&#58957;" d="M631.3 819.7l-489.2-403c-18.9-16.9-18.9-46.5 0-63.4l489.1-405.1c27.4-24.4 70.8-5 70.8 31.7V788.1c0 36.6-43.4 56.1-70.7 31.6z"  horiz-adv-x="1024" />

    
    <glyph glyph-name="caretup" unicode="&#58958;" d="M76.3 263.2l405.1 489.1c16.9 18.9 46.5 18.9 63.4 0l403.1-489.1c24.4-27.4 5-70.8-31.7-70.8H107.9c-36.6 0-56.1 43.4-31.6 70.8z"  horiz-adv-x="1024" />

    
    <glyph glyph-name="carryout" unicode="&#58959;" d="M162.5 312h379c19 0 34.5 15.4 34.5 34.5v3c0 19.1-15.4 34.5-34.5 34.5h-379c-19 0-34.5-15.4-34.5-34.5v-3c0-19.1 15.4-34.5 34.5-34.5z m375-46.1c-14.1-14.1-14.1-36.9 0-50.9l84.9-84.9 0.9-0.9 0.9-0.9 3.5-3.5c13.1-13.1 34.3-13.1 47.4 0l224 224.2c13.1 13.1 13.1 34.3 0 47.4l-3.5 3.5c-13.1 13.1-34.3 13.1-47.4 0L651.3 203l-62.9 62.9c-14.1 14.1-36.9 14.1-50.9 0zM952 704h-84v28c0 19.9-16.1 36-36 36s-36-16.1-36-36v-28H548v28c0 19.9-16.1 36-36 36s-36-16.1-36-36v-28H228v28c0 19.9-16.1 36-36 36s-36-16.1-36-36v-28H72c-39.8 0-72-32.2-72-72v-560c0-39.8 32.2-72 72-72h880c39.8 0 72 32.2 72 72V632c0 39.8-32.2 72-72 72z m0-632H72V448h880v-376z m0 448H72V632h84v-20c0-19.9 16.1-36 36-36s36 16.1 36 36v20h248v-20c0-19.9 16.1-36 36-36s36 16.1 36 36v20h248v-20c0-19.9 16.1-36 36-36s36 16.1 36 36v20h84v-112zM162.5 188h251c19 0 34.5 15.4 34.5 34.5v3c0 19.1-15.4 34.5-34.5 34.5h-251c-19 0-34.5-15.4-34.5-34.5v-3c0-19.1 15.4-34.5 34.5-34.5z"  horiz-adv-x="1024" />

    
    <glyph glyph-name="check-circle-o" unicode="&#58960;" d="M721.3 590.4L393.8 261.9l-85.4 149.5c-9.9 17.3-31.8 23.3-49.1 13.4S236 393 245.9 375.7l108.8-190.5c6.6-11.6 18.8-18.2 31.3-18.2 6.1 0 12.2 1.5 17.8 4.7 3.2 1.9 6.1 4.1 8.5 6.7l0.4 0.4 359.5 360.6c14 14.1 14 36.9-0.1 50.9-14 14.2-36.7 14.2-50.8 0.1zM512 896C229.2 896 0 666.8 0 384s229.2-512 512-512 512 229.2 512 512S794.8 896 512 896z m311.1-823.1c-40.4-40.4-87.5-72.2-139.9-94.3C629-44.4 571.4-56 512-56c-59.4 0-117 11.6-171.2 34.5-52.4 22.2-99.4 53.9-139.9 94.3-40.4 40.4-72.2 87.5-94.3 139.9C83.6 267 72 324.6 72 384c0 59.4 11.6 117 34.5 171.2 22.2 52.4 53.9 99.4 94.3 139.9 40.4 40.4 87.5 72.2 139.9 94.3C395 812.4 452.6 824 512 824c59.4 0 117-11.6 171.2-34.5 52.4-22.2 99.4-53.9 139.9-94.3 40.4-40.4 72.2-87.5 94.3-139.9C940.4 501 952 443.4 952 384c0-59.4-11.6-117-34.5-171.2-22.2-52.4-53.9-99.5-94.4-139.9z"  horiz-adv-x="1024" />

    
    <glyph glyph-name="check-square-o" unicode="&#58961;" d="M721.3 590.4L393.8 261.9l-85.4 149.5c-9.9 17.3-31.8 23.3-49.1 13.4S236 393 245.9 375.7l108.8-190.5c6.6-11.6 18.8-18.2 31.3-18.2 6.1 0 12.2 1.5 17.8 4.7 3.2 1.9 6.1 4.1 8.5 6.7l0.4 0.4 359.5 360.6c14 14.1 14 36.9-0.1 50.9-14 14.2-36.7 14.2-50.8 0.1z m167.2 170.1v-753.1h-753V760.5h753m0 72h-753c-39.8 0-72-32.2-72-72v-753.1c0-39.8 32.2-72 72-72h753.1c39.8 0 72 32.2 72 72V760.5c-0.1 39.8-32.4 72-72.1 72z"  horiz-adv-x="1024" />

    
    <glyph glyph-name="check-circle" unicode="&#58962;" d="M512 896C229.2 896 0 666.8 0 384s229.2-512 512-512 512 229.2 512 512S794.8 896 512 896z m260.3-356.4L412.8 178.9l-0.4-0.4c-2.4-2.6-5.3-4.9-8.5-6.7-5.6-3.2-11.8-4.7-17.8-4.7-12.5 0-24.7 6.5-31.3 18.2L245.9 375.7C236 393 242 415 259.3 424.8c17.3 9.9 39.3 3.9 49.1-13.4l85.4-149.5 327.5 328.5c14 14.1 36.8 14.1 50.9 0.1 14.1-14.1 14.1-36.9 0.1-50.9z"  horiz-adv-x="1024" />

    
    <glyph glyph-name="check-square" unicode="&#58963;" d="M888.5 832.5h-753c-39.8 0-72-32.2-72-72v-753.1c0-39.8 32.2-72 72-72h753.1c39.8 0 72 32.2 72 72V760.5c-0.1 39.8-32.4 72-72.1 72zM772.2 539.4L412.7 178.8l-0.4-0.4c-2.4-2.6-5.3-4.8-8.5-6.7-5.6-3.2-11.7-4.7-17.8-4.7-12.5 0-24.7 6.6-31.3 18.2L245.9 375.7c-9.9 17.3-3.9 39.2 13.4 49.1 17.3 9.9 39.2 3.9 49.1-13.4l85.4-149.5 327.5 328.5c14.1 14.1 36.8 14.1 50.8-0.1 14.1-14 14.1-36.8 0.1-50.9z"  horiz-adv-x="1024" />

    
    <glyph glyph-name="check" unicode="&#58964;" d="M328 96.3c-1.8 0-3.5 0.1-5.3 0.4-12.4 1.7-23.2 9-29.4 19.8L134 395.2c-11 19.2-4.3 43.6 14.9 54.6s43.6 4.3 54.6-14.9l133.2-233.2 491 492.5c15.6 15.6 40.9 15.7 56.6 0.1 15.6-15.6 15.7-40.9 0.1-56.6L358.2 109.9l-1.9-1.9c-7.6-7.6-17.8-11.7-28.3-11.7z"  horiz-adv-x="1024" />

    
    <glyph glyph-name="camera" unicode="&#58965;" d="M899 659H730.7l-93.9 99.6-0.4 0.4c-6.7 6.2-16.4 9.7-26.7 9.7H413.9c-10.3 0-20-3.6-26.6-9.8l-0.2-0.2-94.3-99.7H125c-34.9 0-63.3-28.4-63.3-63.3v-531.9c0-34.9 28.4-63.3 63.3-63.3h774c34.9 0 63.3 28.4 63.3 63.3V595.7c0 34.9-28.4 63.3-63.3 63.3z m-471.2 37h168l34.8-37H392.9l34.9 37z m83.4-532.1c-95.9 0-173.9 78-173.9 173.9s78 173.9 173.9 173.9 173.9-78 173.9-173.9-78-173.9-173.9-173.9z m0 276.4c-27.4 0-53.1-10.7-72.5-30.1-19.4-19.4-30.1-45.1-30.1-72.5s10.7-53.1 30.1-72.5c19.4-19.4 45.1-30.1 72.5-30.1s53.1 10.7 72.5 30.1c19.4 19.4 30.1 45.1 30.1 72.5s-10.7 53.1-30.1 72.5c-19.3 19.5-45.1 30.1-72.5 30.1z"  horiz-adv-x="1024" />

    
    <glyph glyph-name="clock-circle-o" unicode="&#58966;" d="M512 896C229.2 896 0 666.8 0 384s229.2-512 512-512 512 229.2 512 512S794.8 896 512 896z m311.1-823.1c-40.4-40.4-87.5-72.2-139.9-94.3C629-44.4 571.4-56 512-56s-117 11.6-171.2 34.5c-52.4 22.2-99.4 53.9-139.9 94.3-40.4 40.4-72.2 87.5-94.3 139.9C83.6 267 72 324.6 72 384s11.6 117 34.5 171.2c22.2 52.4 53.9 99.4 94.3 139.9 40.4 40.4 87.5 72.2 139.9 94.3C395 812.4 452.6 824 512 824s117-11.6 171.2-34.5c52.4-22.2 99.4-53.9 139.9-94.3 40.4-40.4 72.2-87.5 94.3-139.9C940.4 501 952 443.4 952 384s-11.6-117-34.5-171.2c-22.2-52.4-53.9-99.5-94.4-139.9zM733 392H548V632c0 19.9-16.1 36-36 36s-36-16.1-36-36v-240c0-39.8 32.2-72 72-72h185c19.9 0 36 16.1 36 36s-16.1 36-36 36z"  horiz-adv-x="1024" />

    
    <glyph glyph-name="circledown-o" unicode="&#58967;" d="M511.6 895C229.155 895 0.1 665.945 0.1 383.5S229.155-128 511.6-128s511.5 229.055 511.5 511.5S794.045 895 511.6 895z m310.74-822.24c-40.393-40.391-87.384-72.085-139.773-94.18-54.09-22.896-111.679-34.494-171.067-34.494-59.388 0-116.877 11.598-171.066 34.493-52.29 22.096-99.381 53.79-139.773 94.182-40.392 40.392-72.086 87.383-94.182 139.772-22.795 54.09-34.393 111.579-34.393 170.967 0 59.388 11.598 116.877 34.493 171.067 22.096 52.29 53.79 99.38 94.182 139.772 40.392 40.392 87.383 72.086 139.772 94.182 54.19 22.896 111.679 34.493 171.067 34.493 59.388 0 116.877-11.597 171.067-34.493 52.29-22.096 99.38-53.79 139.772-94.182 40.392-40.392 72.086-87.383 94.182-139.772 22.896-54.09 34.493-111.679 34.493-171.067 0-59.388-11.597-116.877-34.493-171.066-22.196-52.29-53.89-99.281-94.282-139.673z m-54.09 447.013c-10.498 0-20.396-3.999-27.895-11.497L510.5 279.32 282.745 507.276c-15.397 15.397-40.492 15.397-55.79 0-15.396-15.397-15.396-40.492 0-55.79l255.75-255.75c7.5-7.498 17.397-11.597 27.995-11.597 10.698 0 20.596 4.1 27.895 11.498l257.75 256.75c7.398 7.498 11.497 17.496 11.497 27.994s-4.099 20.496-11.598 27.895c-7.498 7.298-17.496 11.497-27.994 11.497z"  horiz-adv-x="1024" />

    
    <glyph glyph-name="circledown" unicode="&#58968;" d="M511.6 895C229.155 895 0.1 665.945 0.1 383.5S229.155-128 511.6-128s511.5 229.055 511.5 511.5S794.045 895 511.6 895z m284.644-442.713l-257.75-256.75c-7.198-7.399-17.096-11.498-27.894-11.498-10.598 0-20.496 4.1-27.994 11.598l-255.75 255.75c-15.397 15.397-15.397 40.492 0 55.789 15.397 15.397 40.492 15.397 55.789 0L510.4 279.32l229.855 228.856c7.499 7.498 17.397 11.498 27.895 11.498 10.498 0 20.496-4.1 27.895-11.598 7.498-7.399 11.597-17.397 11.597-27.895s-4.099-20.396-11.398-27.894z"  horiz-adv-x="1024" />

    
    <glyph glyph-name="clock-circle" unicode="&#58969;" d="M512 896C229.2 896 0 666.8 0 384s229.2-512 512-512 512 229.2 512 512S794.8 896 512 896z m257-540c0-19.9-16.1-36-36-36H548c-39.8 0-72 32.2-72 72V632c0 19.9 16.1 36 36 36s36-16.1 36-36v-240h185c19.9 0 36-16.1 36-36z"  horiz-adv-x="1024" />

    
    <glyph glyph-name="close-circle" unicode="&#58970;" d="M512 896C229.2 896 0 666.8 0 384s229.2-512 512-512 512 229.2 512 512S794.8 896 512 896z m205.3-666.9c14-14.1 14-36.9-0.1-50.9-7-7-16.2-10.5-25.4-10.5s-18.5 3.5-25.5 10.6L512 333 357.7 178.3c-7-7.1-16.3-10.6-25.5-10.6s-18.4 3.5-25.4 10.5c-14.1 14-14.1 36.8-0.1 50.9L461.2 384 306.7 538.9c-14 14.1-14 36.9 0.1 50.9s36.9 14 50.9-0.1L512 435l154.3 154.8c14 14.1 36.8 14.1 50.9 0.1 14.1-14 14.1-36.8 0.1-50.9L562.8 384l154.5-154.9z"  horiz-adv-x="1024" />

    
    <glyph glyph-name="close-circle-o" unicode="&#58971;" d="M717.2 589.8c-14.1 14-36.9 14-50.9-0.1L512 435 357.7 589.7c-14 14.1-36.8 14.1-50.9 0.1-14.1-14-14.1-36.8-0.1-50.9L461.2 384 306.7 229.1c-14-14.1-14-36.9 0.1-50.9 7-7 16.2-10.5 25.4-10.5s18.5 3.5 25.5 10.6L512 333l154.3-154.8c7-7.1 16.3-10.6 25.5-10.6s18.4 3.5 25.4 10.5c14.1 14 14.1 36.8 0.1 50.9L562.8 384l154.4 154.9c14.1 14.1 14.1 36.9 0 50.9zM512 896C229.2 896 0 666.8 0 384s229.2-512 512-512 512 229.2 512 512S794.8 896 512 896z m311.1-823.1c-40.4-40.4-87.5-72.2-139.9-94.3C629-44.4 571.4-56 512-56c-59.4 0-117 11.6-171.2 34.5-52.4 22.2-99.4 53.9-139.9 94.3-40.4 40.4-72.2 87.5-94.3 139.9C83.6 267 72 324.6 72 384c0 59.4 11.6 117 34.5 171.2 22.2 52.4 53.9 99.4 94.3 139.9 40.4 40.4 87.5 72.2 139.9 94.3C395 812.4 452.6 824 512 824c59.4 0 117-11.6 171.2-34.5 52.4-22.2 99.4-53.9 139.9-94.3 40.4-40.4 72.2-87.5 94.3-139.9C940.4 501 952 443.4 952 384c0-59.4-11.6-117-34.5-171.2-22.2-52.4-53.9-99.5-94.4-139.9z"  horiz-adv-x="1024" />

    
    <glyph glyph-name="close" unicode="&#58972;" d="M567.7 381.1l254.8 254.6c15.4 15.4 15.4 40.3 0 55.6-15.4 15.4-40.3 15.4-55.6 0L512 436.8 257.1 691.4c-15.4 15.4-40.3 15.4-55.6 0-15.4-15.4-15.4-40.3 0-55.6l254.8-254.6-254.8-254.7c-15.4-15.4-15.4-40.3 0-55.6 7.7-7.7 17.8-11.5 27.8-11.5 10.1 0 20.1 3.8 27.8 11.5L512 325.5l254.9-254.7c7.7-7.7 17.7-11.5 27.8-11.5 10.1 0 20.1 3.8 27.8 11.5 15.4 15.4 15.4 40.3 0 55.6L567.7 381.1z"  horiz-adv-x="1024" />

    
    <glyph glyph-name="close-square-o" unicode="&#58973;" d="M717.2 589.8c-14.1 14-36.9 14-50.9-0.1L512 435 357.7 589.7c-14 14.1-36.8 14.1-50.9 0.1s-14.1-36.8-0.1-50.9L461.2 384 306.7 229.1c-14-14.1-14-36.9 0.1-50.9 7-7 16.2-10.5 25.4-10.5s18.5 3.5 25.5 10.6L512 333l154.3-154.8c7-7.1 16.3-10.6 25.5-10.6s18.4 3.5 25.4 10.5c14.1 14 14.1 36.8 0.1 50.9L562.8 384l154.4 154.9c14.1 14.1 14.1 36.9 0 50.9z m171.3 170.7v-753.1h-753V760.5h753m0 72h-753c-39.8 0-72-32.2-72-72v-753.1c0-39.8 32.2-72 72-72h753.1c39.8 0 72 32.2 72 72V760.5c-0.1 39.8-32.4 72-72.1 72z"  horiz-adv-x="1024" />

    
    <glyph glyph-name="cloud-o" unicode="&#58974;" d="M702.3 34.7H297.9c-31.8 0-62.1 5.8-90.2 17.1-27.9 11.3-53.7 28.2-76.4 50.3-23 22.3-40.7 47.8-52.5 75.7-11.9 28-18 58.4-18 90.3 0 55 17.8 104.4 52.9 146.8 12.6 15.3 26.8 28.9 42.4 40.4 0.2 24.8 5.1 48.5 14.5 70.6 9.3 22.2 23.4 42.6 41.8 60.6l0.1 0.1c18.1 17.6 38.7 31.1 61.2 40.2 22.5 9.1 46.7 13.7 71.8 13.7 8.5 0 16.8-0.5 25-1.5 15.8 17.4 33.9 33 54 46.4 47.3 31.7 100.8 47.8 158.9 47.8 38.5 0 75-6.9 108.5-20.5 33.8-13.6 64.7-34 92-60.6 27.5-26.9 48.7-57.3 62.8-90.6 9.5-22.2 15.8-45.7 19-70.3 21.3-16.8 39.9-37 55.3-60.2l7.3-10.9v-0.7c23.2-39.2 35-82.2 35-128.2 0-34.8-6.7-68.2-19.8-99.1-13.1-30.7-32.5-58.7-57.6-83.1-25-24.3-53.3-43-84.3-55.6-31-12.4-64.3-18.7-99.3-18.7zM262.6 535.1c-11.5-11.2-20.2-23.7-25.7-37l-0.1-0.2c-5.8-13.7-8.8-28.6-8.8-44.3 0-4.4 0.2-8.7 0.7-13l2.5-22.9-19.7-11.8c-15.9-9.5-30.1-21.9-42.2-36.7l-0.1-0.2c-24.2-29.2-36.4-63.1-36.4-100.9 0-22.1 4.1-43 12.3-62.1 8.1-19.1 20.3-36.6 36.4-52.2 16.1-15.6 34-27.5 53.3-35.3 19.4-7.9 40.6-11.9 63.1-11.9h404.4c25.7 0 50 4.6 72.2 13.5 22.2 9 42.8 22.6 61.1 40.4 18.3 17.8 32.3 37.9 41.6 59.7 9.3 21.9 14 45.8 14 70.9 0 35.5-9.8 68.5-29.2 98.3l-2.3 3.5c-13.3 19.5-29.7 36-48.7 49l-14.4 9.8-1.2 17.4c-1.6 22.7-6.7 44.3-15.2 64.1-10.4 24.5-26.2 47.1-46.9 67.3-20.5 20-43.6 35.3-68.7 45.4-24.9 10.1-52.3 15.2-81.5 15.2-43.6 0-83.6-12-118.9-35.6-20.1-13.4-37.4-29.5-51.4-47.7L398.3 559l-23 5.9c-9.5 2.4-19.7 3.6-30.2 3.6-15.8 0-30.9-2.8-44.8-8.4-13.5-5.5-26.3-13.9-37.7-25z"  horiz-adv-x="1024" />

    
    <glyph glyph-name="close-square" unicode="&#58975;" d="M888.5 832.5h-753c-39.8 0-72-32.2-72-72v-753.1c0-39.8 32.2-72 72-72h753.1c39.8 0 72 32.2 72 72V760.5c-0.1 39.8-32.4 72-72.1 72zM717.2 178.1c-7-7-16.2-10.5-25.4-10.5s-18.5 3.5-25.5 10.6L512 333 357.7 178.3c-7-7.1-16.3-10.6-25.5-10.6s-18.4 3.5-25.4 10.5c-14.1 14-14.1 36.8-0.1 50.9L461.2 384 306.7 538.9c-14 14.1-14 36.9 0.1 50.9s36.9 14 50.9-0.1L512 435l154.3 154.7c14 14.1 36.8 14.1 50.9 0.1s14.1-36.8 0-50.9L562.8 384l154.5-155c14-14.1 14-36.9-0.1-50.9z"  horiz-adv-x="1024" />

    
    <glyph glyph-name="cloud" unicode="&#58976;" d="M926.3 411.4v0.1l-1.3 2c-17.6 26.4-39.4 48.6-64.9 66.1-2 29.1-8.6 56.8-19.6 82.5-13.4 31.4-33.5 60.4-59.8 86-26 25.4-55.5 44.8-87.6 57.8-31.7 12.9-66.5 19.4-103.4 19.4-55.4 0-106.3-15.3-151.3-45.4-25.4-17-47.4-37.4-65.3-60.7-13.5 3.4-27.8 5.2-42.6 5.2-22.3 0-43.7-4-63.5-12-19.8-8-38-20-54.1-35.5-16.3-16-28.7-33.9-36.8-53.3-8.4-19.8-12.7-41.2-12.7-63.6 0-6.2 0.3-12.3 1-18.3-21.2-12.7-40-29.1-56.1-48.7-32.3-39-48.7-84.4-48.7-135 0-29.4 5.6-57.3 16.5-83.1 10.8-25.5 27.1-49 48.4-69.6 21.2-20.5 45-36.2 70.7-46.6 25.8-10.5 53.9-15.8 83.5-15.8h440.6c33 0 64.4 5.9 93.4 17.6 29 11.8 55.7 29.4 79.2 52.3 23.6 23 41.8 49.2 54 77.8 12.2 28.8 18.4 60 18.4 92.6 0.1 46.2-12.7 89.4-38 128.2z"  horiz-adv-x="1024" />

    
    <glyph glyph-name="code-square-o" unicode="&#58977;" d="M888.5 832.5h-753c-39.8 0-72-32.2-72-72v-753.1c0-39.8 32.2-72 72-72h753.1c39.8 0 72 32.2 72 72V760.5c-0.1 39.8-32.4 72-72.1 72z m0-825.1h-753V760.5h753v-753.1zM203.2 357.8c7-7 16.2-10.5 25.4-10.5s18.5 3.5 25.5 10.6l140.4 140.9c14 14 14 36.6 0.1 50.7L254.2 691.7c-14 14.1-36.8 14.3-50.9 0.3-14.1-14-14.3-36.8-0.3-50.9l115.3-116.8-115.2-115.6c-14-14.1-14-36.8 0.1-50.9z m179.4 25.9c0-19.9 16.1-36 35.9-36.1l198.9-0.3h0.1c19.9 0 36 16.1 36 35.9 0 19.9-16.1 36-35.9 36.1l-198.9 0.3h-0.1c-19.8 0-35.9-16.1-36-35.9z"  horiz-adv-x="1024" />

    
    <glyph glyph-name="code-square" unicode="&#58978;" d="M888.5 832.5h-753c-39.8 0-72-32.2-72-72v-753.1c0-39.8 32.2-72 72-72h753.1c39.8 0 72 32.2 72 72V760.5c-0.1 39.8-32.4 72-72.1 72zM228.6 347.3c-9.2 0-18.4 3.5-25.4 10.5-14.1 14-14.1 36.8-0.1 50.9l115.2 115.6L203 641.1c-14 14.1-13.8 36.9 0.3 50.9 14.1 14 36.9 13.8 50.9-0.3l140.4-142.2c13.9-14.1 13.8-36.7-0.1-50.7L254.1 357.9c-7-7.1-16.3-10.6-25.5-10.6z m388.9 0l-198.9 0.3c-19.9 0-36 16.2-35.9 36.1 0 19.9 16.1 35.9 36 35.9h0.1l198.9-0.3c19.9 0 36-16.2 35.9-36.1-0.1-19.8-16.2-35.9-36.1-35.9z"  horiz-adv-x="1024" />

    
    <glyph glyph-name="copy" unicode="&#58979;" d="M874.6 658.2L660.8 874.7c-4.5 4.5-9.4 8.3-14.7 11.5-1.4 0.8-2.8 1.6-4.3 2.3-0.9 0.5-1.9 0.9-2.8 1.3-9 4-18.9 6.2-29 6.2H329c-39.8 0-73-32.2-73-72v-56h-55.5c-39.8 0-72.5-32.6-72.5-72.4v-752c0-39.8 32.7-71.6 72.5-71.6h495c39.8 0 71.5 31.8 71.5 71.6V0h57c39.8 0 71 32.2 71 72V607.5c0 19-7 37.2-20.4 50.7zM647 785.6L783.8 648H647V785.6zM695-56H200V696h56v-624c0-39.8 33.2-72 73-72h366v-56z m128 128H328V824h247v-176c0-39.8 33.2-72 73-72h175v-504zM640 476c0 19.9-16.1 36-36 36H420c-19.9 0-36-16.1-36-36s16.1-36 36-36h184c19.9 0 36 16.1 36 36z m128-128c0 19.9-16.1 36-36 36H420c-19.9 0-36-16.1-36-36s16.1-36 36-36h312c19.9 0 36 16.1 36 36z m-64-128c0 19.9-16.1 36-36 36H420c-19.9 0-36-16.1-36-36s16.1-36 36-36h248c19.9 0 36 16.1 36 36z"  horiz-adv-x="1024" />

    
    <glyph glyph-name="contacts" unicode="&#58980;" d="M256 204c0 19.9-16.1 36-36 36H100c-19.9 0-36-16.1-36-36s16.1-36 36-36h120c19.9 0 36 16.1 36 36zM100 526h120c19.9 0 36 16.1 36 36s-16.1 36-36 36H100c-19.9 0-36-16.1-36-36s16.1-36 36-36zM888 832H200c-39.8 0-72-32.2-72-72v-56c0-19.9 16.1-36 36-36s36 16.1 36 36v56h688v-752H200v54h-0.1c0 0.7 0.1 1.3 0.1 2 0 19.9-16.1 36-36 36s-36-16.1-36-36c0-0.7 0-1.3 0.1-2h-0.1v-54c0-39.8 32.2-72 72-72h688c39.8 0 72 32.2 72 72V760c0 39.8-32.2 72-72 72zM100 347h120c19.9 0 36 16.1 36 36s-16.1 36-36 36H100c-19.9 0-36-16.1-36-36s16.1-36 36-36z m475.6-35c-90.4 0-164 73.6-164 164s73.6 164 164 164 164-73.6 164-164-73.6-164-164-164z m0 256c-50.7 0-92-41.3-92-92s41.3-92 92-92 92 41.3 92 92-41.3 92-92 92zM764.2 128c-17 0-32.1 12-35.3 29.3-14 73.4-78.4 126.7-153.3 126.7s-139.3-53.3-153.3-126.7C419 140 403.9 128 387 128c-2.2 0-4.5 0.2-6.7 0.6-19.5 3.7-32.4 22.5-28.7 42.1C371.9 278.1 466.1 356 575.6 356c109.4 0 203.7-77.9 224-185.3 3.7-19.5-9.1-38.4-28.7-42.1-2.2-0.4-4.5-0.6-6.7-0.6z"  horiz-adv-x="1024" />

    
    <glyph glyph-name="copyright" unicode="&#58981;" d="M517.6 175.9c-52.8 0-93.4 19.2-120.8 55.7-28.4 36.5-41.6 87.1-41.6 150.9s14.2 114.5 42.6 151.9c29.4 38.5 70 57.7 120.8 57.7 41.6 0 75.1-9.1 101.5-29.4 25.4-20.3 41.6-50.6 48.7-91.2H749c-9.1 63.8-33.5 111.4-74.1 142.8-39.6 30.4-91.3 45.6-156.3 45.6-78.1 0-140-27.3-184.7-83.1-41.6-50.5-61.9-115.3-61.9-195.3s20.3-144.8 61.9-194.5c43.6-52.7 104.5-79 183.7-79 64.9 0 116.7 17.2 156.3 50.6 40.6 34.4 66 86.1 78.1 152.9h-81.2c-12.2-90.1-63.9-135.6-153.2-135.6zM512 896C229.2 896 0 666.8 0 384s229.2-512 512-512 512 229.2 512 512S794.8 896 512 896z m0-952C269-56 72 141 72 384S269 824 512 824s440-197 440-440-197-440-440-440z"  horiz-adv-x="1024" />

    
    <glyph glyph-name="creditcard" unicode="&#58982;" d="M951.9 766.5H72c-39.8 0-72-32.2-72-72v-621.1c0-39.8 32.2-72 72-72h880c39.8 0 72 32.2 72 72V694.5c-0.1 39.8-32.4 72-72.1 72z m0-693.1H72V478h879.9v-404.6zM72 574V694.5h879.9V574H72z m165-382c24.3 0 44 19.7 44 44s-19.7 44-44 44-44-19.7-44-44 19.7-44 44-44z m166.5 0c24.3 0 44 19.7 44 44s-19.7 44-44 44-44-19.7-44-44 19.7-44 44-44z"  horiz-adv-x="1024" />

    
    <glyph glyph-name="customerservice" unicode="&#58983;" d="M838 578.8c-4.3 17.9-10.2 35.4-17.5 52.2-17 39.2-41.3 74.4-72.4 104.7-30.9 30.1-67 53.8-107.1 70.4-41.6 17.1-85.7 25.8-131 25.8-45.2 0-89.3-8.7-130.9-25.8C339 789.6 303 765.9 272 735.7c-31-30.2-55.4-65.4-72.4-104.7-7.4-17-13.4-35-17.9-53.5-15.8-5.3-30.7-13-44.4-22.8-14.8-10.6-27.8-23.4-38.6-38.1C76 486.1 64 449.7 64 411.4c0-46.5 18.2-90.4 51.3-123.6 24.3-24.3 54.5-40.8 87.1-47.6 2.4-0.5 4.9-0.8 7.4-0.8 9.4 0 18.6 3.8 25.2 10.6 6.7 6.7 10.3 15.7 10.2 25.2l-1.5 227.1c0 68.9 27.6 133.7 77.6 182.5 50.4 49.1 117.4 76.1 188.6 76.1 71.2 0 138.2-27 188.6-76 50-48.8 77.6-113.6 77.6-182.5v-236.8c0-68.9-27.6-133.7-77.6-182.5-21.2-20.7-45.3-37.5-71.8-50 1.2 7.2 1.7 14.5 1.6 21.9-0.7 29.9-12.7 58.1-33.9 79.4-21.2 21.3-49.3 33.5-79.2 34.3h-3c-31 0-60.2-12.1-82.2-34.1s-34.1-51.2-34.1-82.2c0-30.6 11.8-59.6 33.4-81.5 21.5-21.9 50.1-34.2 80.7-34.8H515.2c43.7 0.6 86.1 9.3 125.9 25.8 40.1 16.5 76.1 40.2 107.1 70.4 31 30.2 55.4 65.4 72.4 104.7 15.2 35.1 24 72.3 26.2 110.7 23.2 8.7 44.1 22.3 62 40.3 33.1 33.1 51.3 77 51.3 123.5-0.1 77.2-50 145.3-122.1 167.3zM81.7 355.3c0.9-2.5 1.9-5.1 2.9-7.6-1 2.5-2 5-2.9 7.6z m9.9-22.2c1.7-3.1 3.5-6.2 5.3-9.2-1.8 3-3.6 6-5.3 9.2z m68.3-0.7c-1 1-2 2-2.9 3 0.9-1 1.9-2 2.9-3l2.4-2.4-2.4 2.4z m12.9-0.9c-2.5 2.1-4.9 4.3-7.2 6.6-19.7 19.7-30.6 45.8-30.6 73.3 0 18.5 4.8 36.7 13.8 52.6 6.2 11 14.4 20.7 24 28.6v-161.1z m8-15.6c-0.9 0.6-1.9 1.2-2.8 1.8 0.9-0.7 1.9-1.3 2.8-1.8z m7.6 255.4c1 4.3 2.1 8.6 3.2 12.9-1.2-4.3-2.3-8.6-3.2-12.9z m15.7-323.2c-3.4 0.7-6.7 1.5-10 2.4 3.3-0.8 6.6-1.7 10-2.4l1.5-0.3-1.5 0.3z m5.7-0.6h-0.5 0.9-0.4z m27.4 26.2v1.5l-1.5 227.1 1.5-227.1c0.1-0.5 0.1-1 0-1.5z m70 482c3.3 2.5 6.6 5 10 7.3-3.3-2.3-6.7-4.7-10-7.3z m74.9 43c-20.4-8.4-39.7-18.7-57.8-30.8 18.1 12.1 37.4 22.4 57.8 30.8 1.5 0.6 3.1 1.2 4.6 1.8-1.6-0.5-3.1-1.1-4.6-1.8z m59.4-38.1c2.6 0.6 5.2 1.3 7.8 1.8-2.5-0.6-5.2-1.2-7.8-1.8z m301-30.6c-30.2 29.5-65.5 52.6-104.6 68.7-1.5 0.6-3.1 1.2-4.6 1.8 1.5-0.6 3.1-1.2 4.6-1.8 39.1-16.1 74.3-39.2 104.6-68.7 1.9-1.8 3.8-3.7 5.6-5.6l-5.6 5.6z m11.5-11.8c3.2-3.4 6.3-6.9 9.3-10.4-3 3.5-6.1 7-9.3 10.4z m10.8-12.3c2.7-3.2 5.3-6.5 7.9-9.8-2.5 3.3-5.2 6.6-7.9 9.8z m-361-653.5v2.8-2.8z m108.3 108.3h2.8-2.8z m32.4-140c-8.2-8.4-19.1-13.3-30.8-13.7h-2.2c-24.6 0.3-44.7 20.6-44.7 45.3 0 25 20.3 45.3 45.3 45.3 25 0 45.3-20.3 45.3-45.3-0.1-11.8-4.6-23.1-12.9-31.6z m20.3 23.6c0.4 2.6 0.6 5.3 0.6 8 0 0.9 0 1.8-0.1 2.7 0-0.9 0.1-1.8 0.1-2.7 0-2.7-0.2-5.4-0.6-8z m50.3-25l0.9 3-0.9-3c1.5 0.6 3.1 1.3 4.6 1.9-1.5-0.7-3-1.3-4.6-1.9zM742.5 38c-2-2-4.1-3.9-6.1-5.8 2 1.9 4.1 3.9 6.1 5.8 1.9 1.8 3.8 3.7 5.6 5.6l-5.6-5.6z m41.6 227.6V502.4c0 1.9 0 3.9-0.1 5.8 0-1.9 0.1-3.9 0.1-5.8v-236.8z m29-125.4c-2.1-4.8-4.3-9.5-6.6-14.2 2.4 4.7 4.6 9.4 6.6 14.2 0.7 1.7 1.5 3.4 2.2 5.1-0.7-1.7-1.4-3.4-2.2-5.1z m0 487.6c-2.1 4.8-4.3 9.5-6.6 14.2 2.4-4.7 4.6-9.4 6.6-14.2 1-2.2 1.9-4.5 2.8-6.8-0.8 2.3-1.8 4.6-2.8 6.8z m18.2-55.3c-0.5 2.1-1 4.1-1.5 6.1 0.5-2 1-4.1 1.5-6.1z m7.8-62.1c4-2.2 7.9-4.6 11.6-7.3-3.7 2.7-7.6 5.1-11.6 7.3z m25-178c-7.6-7.6-16-13.9-24.9-18.9 8.9 5 17.3 11.4 24.9 18.9 0.5 0.5 0.9 1 1.4 1.4-0.5-0.4-0.9-0.9-1.4-1.4z m-5.7 5.7c-3.6-3.6-7.3-6.8-11.3-9.8V495.8c10.7-8 19.9-18.1 26.9-29.9 9.8-16.4 14.9-35.2 14.9-54.5 0.1-27.6-10.8-53.6-30.5-73.3zM945 459.9c-0.7 2.2-1.3 4.4-2.1 6.5 0.7-2.1 1.4-4.3 2.1-6.5z m-9.8 25.3c1-2 1.9-4.1 2.8-6.1-0.9 2.1-1.9 4.1-2.8 6.1z m7.4-128.8c0.8 2.2 1.5 4.5 2.2 6.7-0.6-2.3-1.4-4.5-2.2-6.7z"  horiz-adv-x="1024" />

    
    <glyph glyph-name="dashboard" unicode="&#58984;" d="M512 848C229.2 848 0 618.8 0 336c0-167.5 80.4-316.2 204.8-409.6l0.1 0.2c6.1-4.7 13.8-7.6 22.1-7.6 19.9 0 36 16.1 36 36 0 13.2-7.1 24.7-17.7 31-37.8 28.8-70.8 63.7-97.5 103.1l44.2 25.5c15.3 8.8 20.5 28.4 11.7 43.7-8.8 15.3-28.4 20.5-43.7 11.7l-44.2-25.5C92.1 193.3 77.2 247.2 73.2 304H124c17.7 0 32 14.3 32 32s-14.3 32-32 32H73.2c4.1 57 19.1 111 42.8 160l44-25.4c15.3-8.8 34.9-3.6 43.7 11.7 8.8 15.3 3.6 34.9-11.7 43.7l-43.9 25.3c31.2 45.8 70.8 85.4 116.6 116.6L290 656c8.8-15.3 28.4-20.5 43.7-11.7 15.3 8.8 20.5 28.4 11.7 43.7L320 732c48.9 23.8 102.9 38.7 160 42.8V724c0-17.7 14.3-32 32-32s32 14.3 32 32v50.8c56.8-4.1 110.7-19 159.5-42.6L678 688c-8.8-15.3-3.6-34.9 11.7-43.7 15.3-8.8 34.9-3.6 43.7 11.7l25.5 44.2c46-31.2 85.7-70.9 117-116.9L832 558c-15.3-8.8-20.5-28.4-11.7-43.7 8.8-15.3 28.4-20.5 43.7-11.7l44 25.4c23.8-48.9 38.7-103 42.8-160H900c-17.7 0-32-14.3-32-32s14.3-32 32-32h50.8c-4.1-56.9-19-110.7-42.6-159.5L864 170c-15.3 8.8-34.9 3.6-43.7-11.7-8.8-15.3-3.6-34.9 11.7-43.7l44.2-25.5C848.8 48.7 814.9 13.2 776-16l0.2-0.3c-8.7-6.6-14.2-17-14.2-28.7 0-19.9 16.1-36 36-36 10 0 19.1 4.1 25.7 10.8C945.5 23.3 1024 170.5 1024 336c0 282.8-229.2 512-512 512z m157.6-348.8L543.9 401c-9.6 4.8-20.5 7.4-31.9 7.4-39.8 0-72-32.2-72-72s32.2-72 72-72 72 32.2 72 72c0 4.7-0.4 9.2-1.3 13.6L709 448.8c13.9 10.9 16.4 31 5.5 44.9-10.9 13.9-31 16.4-44.9 5.5z"  horiz-adv-x="1024" />

    
    <glyph glyph-name="database" unicode="&#58985;" d="M824 896H200c-39.8 0-72-32.2-72-72v-880c0-39.8 32.2-72 72-72h624c39.8 0 72 32.2 72 72V824c0 39.8-32.2 72-72 72z m0-943H200V197c0-0.5 0.4-1 1-1h622c0.5 0 1 0.4 1 1v-244z m0 314c0 0.5-0.4 1-1 1H201c-0.5 0-1-0.4-1-1V511c0-0.5 0.4-1 1-1h622c0.5 0 1 0.4 1 1v-244z m0 314c0 0.5-0.4 1-1 1H201c-0.5 0-1-0.4-1-1V824h624v-243zM285 75a36 36 0 1 1 72 0 36 36 0 1 1-72 0z m0 314a36 36 0 1 1 72 0 36 36 0 1 1-72 0z m0 314a36 36 0 1 1 72 0 36 36 0 1 1-72 0z"  horiz-adv-x="1024" />

    
    <glyph glyph-name="delete" unicode="&#58986;" d="M178.086-49.957c-1.094 0.39-2.207 0.898-3.3 1.406 1.21-0.508 2.206-1.015 3.3-1.406z m-8.574 4.082c-1.504 0.898-2.989 1.797-4.395 2.793 1.387-0.996 2.89-1.895 4.395-2.793zM950.39 692.563c-6.797 6.796-16.68 10.585-26.27 10.585H739.746V760.59c0 38.847-31.562 70.41-70.41 70.41H354.609c-38.847 0-70.41-31.563-70.41-70.41v-57.442H98.887c-19.668 0-35.762-15.976-35.762-35.761s15.977-35.762 35.762-35.762h31.562v-622.363c0-38.848 31.563-70.41 70.41-70.41h632.266c38.848 0 70.41 31.562 70.41 70.41V631.625h20.567c19.668 0 36.757 15.977 36.757 35.762 0.02 9.492-3.672 18.379-10.468 25.175z m-595.899 67.812h314.531v-57.832h-314.53v57.832z m478.535-751.016H200.86V631.625H833.008v-622.266zM511.504 511.781c-19.883 0-35.957-16.074-35.957-35.957v-333.613c0-19.883 16.074-35.957 35.957-35.957s35.957 16.074 35.957 35.957V475.824c0 19.863-16.074 35.957-35.957 35.957z m-194.766 0c-19.883 0-35.957-16.074-35.957-35.957v-333.613c0-19.883 16.074-35.957 35.957-35.957s35.957 16.074 35.957 35.957V475.824c0 19.863-16.093 35.957-35.957 35.957z m387.54 0c-19.883 0-35.958-16.074-35.958-35.957v-333.613c0-19.883 16.075-35.957 35.957-35.957s35.957 16.074 35.957 35.957V475.824c0 19.863-16.074 35.957-35.957 35.957z"  horiz-adv-x="1024" />

    
    <glyph glyph-name="desktop" unicode="&#58988;" d="M902 766H123.2C91.7 766 66 740.3 66 708.8V229c0-31.5 25.7-57.2 57.2-57.2H480v-107.9H332.7c-17.4 0-31.6-14.2-31.6-31.6 0-17.4 14.2-31.6 31.6-31.6h358.4c17.4 0 31.6 14.2 31.6 31.6 0 17.4-14.2 31.6-31.6 31.6H543.2V171.8H902c31.5 0 57.2 25.7 57.2 57.2V708.8c0 31.5-25.7 57.2-57.2 57.2z m-6-63.2V235H129.2V702.8H896z"  horiz-adv-x="1024" />

    
    <glyph glyph-name="dislike_" unicode="&#58992;" d="M256 392c0-39.8-32.2-72-72-72h-48c-39.8 0-72 32.2-72 72V760c0 39.8 32.2 72 72 72h48c39.8 0 72-32.2 72-72v-368z m701.2-45.9c-6.7-26.1-21.1-46.6-47-55.7-13.5-4.4-27.6-6.7-41.8-6.6-75.3-0.6-150.6-0.2-225.9-0.2-9.7 0-10-0.6-8.5-9.9 4.7-27.5 8.6-55.1 14-82.4 7.3-37 8.2-73.8-4.1-109.7-11.1-32.3-23.7-64.2-35.8-96.2-6.8-18.1-18.2-31.3-36.5-38.9-34.5-14.5-68.6-14.2-101.7 3-21.1 11.1-33.5 28.7-32.8 53.8 1 35.4 1.2 70.8 2.7 106.2 0.7 11.4-2.1 22.8-7.8 32.6-27.3 46.9-47.1 83.4-75.6 129.6-5.3 8.5-21.4 24.8-28.3 32.1-20.4 21.5-30.9 35.5-31 59.1-0.1 85.9-0.3 275-0.7 396.8-0.1 39.9 32.2 72.3 72.1 72.2 105.2-0.1 296.3-0.3 390-0.3 22.4 0 44.4-1.4 66-8.4 42.8-14 69.7-47.2 73.1-92 1.3-17 0.5-33.9-5.6-50.3-0.9-2.3 0.6-6.3 2.3-8.6 16.9-22.6 27-47.6 25.2-76.1-0.6-9.8-3.7-19.6-6.7-29.1-1.6-5.1-1.6-8.5 1.9-12.8 16.1-20.2 25.9-43.2 25.1-69.2-0.4-12.3-4.9-24.4-7.2-36.6-0.6-2.9-1-7.2 0.6-9 13.8-15.4 21.5-33.6 25.5-53.7 0.3-0.8 0.8-1.4 1.4-2v-28.3c-1-3.1-2-6.2-2.9-9.4z"  horiz-adv-x="1024" />

    
    <glyph glyph-name="dotchart" unicode="&#58993;" d="M923 8H135V797c0 19.9-16.1 36-36 36S63 816.9 63 797v-825c0-19.9 16.1-36 36-36h824c19.9 0 36 16.1 36 36s-16.1 36-36 36zM252.8 259.2a66 66 0 1 1 132 0 66 66 0 1 1-132 0zM512 299a85.5 85.5 0 1 1 171 0 85.5 85.5 0 1 1-171 0zM563.2 514.2a59.9 59.9 0 1 1 119.8 0 59.9 59.9 0 1 1-119.8 0z m241.5 143.2a45.5 45.5 0 1 1 91 0 45.5 45.5 0 1 1-91 0zM829.5 466.1a33.3 33.3 0 1 1 66.6 0 33.3 33.3 0 1 1-66.6 0z"  horiz-adv-x="1024" />

    
    <glyph glyph-name="dislike" unicode="&#58994;" d="M960 352.4v44l-3.9 5.1c-3.9 15.9-10.5 31-19.7 44.6 2.8 9.6 4.4 19.5 4.9 29.6 0.8 26.8-6.9 52.5-23.1 76.6 2.3 7.9 3.8 16.1 4.4 24.3 1.8 28.7-5.8 56.6-22.7 83.1 3.2 15.1 4 30.6 2.6 45.9-4.2 55.5-38.8 99.2-92.4 116.8-25.7 8.4-50.8 9.8-72 9.8h-93.9c-33.2 0-66.9-0.2-100.7-0.2-53 0-106.3 0.2-159.2 0.2h-1.1 0.1H136c-39.8 0-72-32.2-72-72v-368c0-39.8 32.2-72 72-72h113.2s55.9-6.4 82.4-48.5c18.3-29.3 36-60.2 53.1-90 7.2-12.6 14.7-25.4 22-38.1 1.8-3 2.6-6.4 2.2-9.9-0.9-20.7-1.3-41.6-1.7-61.7-0.2-11.9-0.5-24.2-0.8-36.2-1-36.2 16.8-65.7 49.9-83.1 21-11 43.2-16.5 65.8-16.5 19.5 0 39.3 4.1 58.9 12.3 25.5 10.7 43.5 29.8 53.7 56.8 3 7.9 6 15.8 9 23.6 8.2 21.3 16.6 43.4 24.2 65.6 12.3 35.7 13.9 74.9 5.1 119.8-2.6 13.4-4.9 26.8-7.1 40.8h21.6c21.1 0 42.5-0.1 64.1-0.1 29.2 0 58.7 0 87.9 0.2h0.8c16.8 0 33.5 2.7 49.5 8.1 23.6 8.4 54.3 28.4 66.6 76.7 0.3 1 0.7 2.5 1.2 4l0.9 3 1.5 5.4zM248 392H136V760h112v-368z m640-28.8c0-1.5-1-3.5-1.6-5.6-4.6-18.1-12.5-23.5-20.4-26.4-8.4-2.8-17.1-4.2-25.9-4.2h-0.4l-0.5 0.1-0.5 0.1c-31-0.2-61.5-0.3-87.3-0.3h-32.3c-10.7 0-21.2 0.1-31.8 0.1H581.1l13.6-83.6c2.6-15.9 4.9-29.4 7.6-43.1 6.3-32.2 5.5-59.1-2.5-82.5-7-20.2-14.4-39.8-23.4-63.3-3.1-8-6.1-16.1-9.1-24-3.6-9.6-8.1-13.1-14.1-15.7-10.7-4.5-21.1-6.7-31.1-6.7-11.1 0-21.7 2.7-32.4 8.3-3.1 1.6-7.3 4.3-9.4 7.7-0.5 0.8-2.1 3.4-1.9 9.6 0.3 11.5 0.6 23 0.8 36.8v1.7c0.4 18.8 0.8 38.3 1.5 57.2 1.2 17.7-2.9 35-11.9 50.3-2.6 4.4-5.1 8.9-7.7 13.3-4.6 8-9.4 16.2-13.9 24.2l-0.1 0.1-0.1 0.1-0.7 1.1c-17.2 30-35 61-53.7 91l-0.1 0.2-0.1 0.2c-16.6 26.3-41.1 47.7-71.5 62.4l-0.6 387.7h63.9c55.7 0 111.9-0.3 159.4-0.3 17 0 34 0.1 50.8 0.1 16.7 0 33.3 0.2 49.9 0.2h93.9c16.2 0 33.5-0.9 49.7-6.2 13-4.2 23.3-11.3 30.6-20.5 7.2-9.1 11.3-20.2 12.3-33.3v-0.6l0.1-0.6c0.8-8.2 0.3-16.3-1.4-24.3l-0.8-3.4H820h8.7l-5.3-25.2 15.8-25c8.5-13.4 12.3-26.3 11.6-39.4-0.2-3-0.8-6-1.6-8.9l-9.5-32.3 18.8-28c7.6-11.3 11.1-22 10.9-33.5-0.3-4.3-1-8.6-2.2-12.7l-9.3-32.4 18.9-27.9c4.4-6.4 7.5-13.5 9.3-21.1l1.9-7.8v-13.7z"  horiz-adv-x="1024" />

    
    <glyph glyph-name="down-circle" unicode="&#58997;" d="M512 895.001C229.476 895.001 0.5 666.025 0.5 383.501S229.476-128 512-128s511.5 228.976 511.5 511.5S794.524 895.001 512 895.001z m246.959-465.346l-220.785-235.57c-6.693-7.193-16.184-11.289-26.174-11.289s-19.481 4.096-26.274 11.39L264.94 429.755c-13.586 14.485-12.887 37.263 1.599 50.85 14.486 13.586 37.263 12.887 50.85-1.599L512 271.41l194.51 207.497c13.587 14.486 36.365 15.185 50.85 1.599 14.486-13.587 15.186-36.365 1.599-50.85z"  horiz-adv-x="1024" />

    
    <glyph glyph-name="down-circle-o" unicode="&#58998;" d="M512 823.071c59.342 0 116.886-11.588 171.033-34.466 52.349-22.178 99.303-53.848 139.763-94.208 40.361-40.36 72.13-87.415 94.208-139.764 22.978-54.247 34.567-111.79 34.567-171.133s-11.589-116.885-34.467-171.032c-22.178-52.35-53.847-99.304-94.208-139.764-40.36-40.36-87.414-72.13-139.763-94.208C628.886-44.482 571.342-56.07 512-56.07s-116.886 11.588-171.033 34.466c-52.349 22.178-99.303 53.848-139.763 94.208-40.361 40.36-72.13 87.415-94.208 139.764-22.978 54.247-34.567 111.79-34.567 171.132s11.589 116.886 34.467 171.033c22.178 52.35 53.847 99.303 94.208 139.764 40.36 40.36 87.414 72.13 139.763 94.208C395.114 811.483 452.658 823.071 512 823.071m0 71.93C229.476 895.001 0.5 666.025 0.5 383.501S229.476-128 512-128s511.5 228.976 511.5 511.5S794.524 895.001 512 895.001z m0-712.205c-9.99 0-19.481 4.096-26.274 11.39L264.94 429.755c-13.586 14.485-12.887 37.263 1.599 50.85 14.486 13.586 37.263 12.887 50.85-1.599L512 271.41l194.51 207.497c13.587 14.486 36.365 15.185 50.85 1.599 14.486-13.587 15.186-36.365 1.599-50.85l-220.785-235.57c-6.693-7.194-16.184-11.29-26.174-11.29z"  horiz-adv-x="1024" />

    
    <glyph glyph-name="down-square-o" unicode="&#58999;" d="M888.5 760.5v-753.1h-753V760.5h753m0 72h-753c-39.8 0-72-32.2-72-72v-753.1c0-39.8 32.2-72 72-72h753.1c39.8 0 72 32.2 72 72V760.5c-0.1 39.8-32.3 72-72.1 72zM538.2 215.3l221 235.8c13.6 14.5 12.9 37.3-1.6 50.9-14.5 13.6-37.3 12.9-50.9-1.6L512 292.7 317.2 500.5c-13.6 14.5-36.4 15.2-50.9 1.6s-15.2-36.4-1.6-50.9l221-235.8c6.8-7.3 16.3-11.4 26.3-11.4s19.5 4.1 26.2 11.3z"  horiz-adv-x="1024" />

    
    <glyph glyph-name="down" unicode="&#59000;" d="M895.7 595.9c0-9.6-3.2-19.3-9.6-27.4L545.2 144.7c-8.3-10.3-20.8-16.3-34.1-16.3-13.2 0-25.8 6-34 16.3L138 566.7c-15.1 18.8-12.1 46.3 6.7 61.4 18.8 15.1 46.3 12.1 61.4-6.7l305.1-379.6L818 623.3c15.1 18.8 42.6 21.8 61.4 6.7 10.7-8.7 16.3-21.3 16.3-34.1z"  horiz-adv-x="1024" />

    
    <glyph glyph-name="down-square" unicode="&#59001;" d="M888.5 832.5h-753c-39.8 0-72-32.2-72-72v-753.1c0-39.8 32.2-72 72-72h753.1c39.8 0 72 32.2 72 72V760.5c-0.1 39.8-32.3 72-72.1 72zM759.2 451.1l-221-235.8C531.5 208.1 522 204 512 204s-19.5 4.1-26.3 11.4l-221 235.8c-13.6 14.5-12.9 37.3 1.6 50.9 14.5 13.6 37.3 12.9 50.9-1.6L512 292.7l194.7 207.7c13.6 14.5 36.4 15.2 50.9 1.6s15.2-36.4 1.6-50.9z"  horiz-adv-x="1024" />

    
    <glyph glyph-name="download" unicode="&#59002;" d="M487.5 111.7c6.7-6.7 15.6-10.1 24.5-10.1s17.7 3.4 24.5 10.1l155.9 155.9c13.5 13.5 13.5 35.4 0 48.9-6.5 6.5-15.2 10.1-24.4 10.1s-17.9-3.6-24.4-10.1l-96.9-96.9V797.4c0 19.1-15.5 34.6-34.6 34.6s-34.6-15.5-34.6-34.6v-577.8l-96.9 96.9c-13.5 13.5-35.4 13.5-48.8 0-13.5-13.5-13.5-35.4-0.1-48.9l155.8-155.9z m436.9 143.9c-19.1 0-34.6-15.5-34.6-34.6v-195.4c0-11.3-9.2-20.6-20.6-20.6H152.7c-11.3 0-20.6 9.2-20.6 20.6V221.1c0 19.1-15.5 34.6-34.6 34.6S63 240.1 63 221.1v-222.9c0-34.3 27.9-62.1 62.1-62.1h771.8c34.3 0 62.1 27.9 62.1 62.1V221.1c0 19-15.5 34.5-34.6 34.5z"  horiz-adv-x="1024" />

    
    <glyph glyph-name="edit" unicode="&#59003;" d="M924 8H100c-19.9 0-36-16.1-36-36s16.1-36 36-36h824c19.9 0 36 16.1 36 36s-16.1 36-36 36zM296 126l235.5 99.7c3.8 1.6 7.2 3.9 10.2 6.8l397.2 397.2c28.1 28.1 28.3 73.9 0.2 102L859.8 811c-28.1 28.1-73.9 27.9-102-0.2L360.6 413.6c-2.9-2.9-5.2-6.4-6.8-10.2L254 168c-5.6-13.2-1.7-26.5 6.8-35.1s21.9-12.5 35.2-6.9z m512.7 633.9l0.2 0.2 79.2-79.2-0.2-0.2-62-62-79.2 79.2 62 62zM417 368.2L695.8 647l79.2-79.2L496.2 289l-137.4-58.2L417 368.2z"  horiz-adv-x="1024" />

    
    <glyph glyph-name="earth" unicode="&#59004;" d="M512 896C229.2 896 0 666.8 0 384s229.2-512 512-512 512 229.2 512 512S794.8 896 512 896zM394.4 808.1c-30.5-25.8-57.8-61.2-80.5-104.1-20.7 10.5-40.5 22.5-59.2 36h-1.4c42.1 30.6 89.7 53.9 141.1 68.1zM198.2 692.4c26.8-20.8 55.8-39 86.4-54.3C262.5 578 248 508.6 243.5 434H74.8c11.3 100.2 56.3 190.2 123.4 258.4zM72.5 362h169.8c2.2-85.3 17.5-164.6 42.3-232.1-30.7-15.2-59.6-33.5-86.4-54.3C124.9 150.1 78 250.6 72.5 362z m180.9-334h1.4c18.7 13.5 38.4 25.5 59.2 36 22.8-42.9 50-78.3 80.5-104.1-51.5 14.2-99.1 37.5-141.1 68.1zM481-10.1c-39.4 12.5-74.9 48.4-103 100.3 32.8 10.5 67.3 17.2 103 19.7v-120z m0 192.2c-45.8-2.7-89.9-11.5-131.7-25.5-20.3 58.9-32.9 129.3-35 205.4H481v-179.9z m0 251.9H315.5c4.1 65.4 16 125.8 33.7 177.4 41.8-14 85.9-22.7 131.7-25.5V434z m0 224.1c-35.7 2.5-70.2 9.2-103 19.7 28.1 52 63.6 87.9 103 100.3v-120zM949.2 434H780.5c-4.5 74.6-19 144-41.1 204.1 30.7 15.2 59.6 33.5 86.4 54.3 67.1-68.2 112.1-158.2 123.4-258.4zM770.6 740h-1.4c-18.7-13.5-38.4-25.5-59.2-36-22.8 42.9-50 78.3-80.5 104.1 51.5-14.2 99.1-37.5 141.1-68.1zM553 774.4c35.4-15 67.3-49.1 93-96.6-29.7-9.5-60.9-15.9-93-18.9V774.4z m0-187.8c42.2 3.3 83 11.8 121.7 24.8 17.8-51.6 29.7-112 33.7-177.4H553V586.6z m0-224.6h156.7c-2.1-76.1-14.7-146.5-35-205.4-38.7 13-79.5 21.4-121.7 24.8V362z m0-368.4V109.1c32.1-3 63.2-9.4 93-18.9-25.7-47.5-57.6-81.6-93-96.6z m76.6-33.7c30.5 25.8 57.8 61.2 80.5 104.1 20.7-10.5 40.5-22.5 59.2-36h1.4c-42.1-30.6-89.7-53.9-141.1-68.1z m196.2 115.7c-26.8 20.8-55.8 39-86.4 54.3 24.9 67.5 40.1 146.9 42.3 232.1h169.8c-5.5-111.4-52.4-211.9-125.7-286.4z"  horiz-adv-x="1024" />

    
    <glyph glyph-name="enter" unicode="&#59005;" d="M900.2 510.2v192c0 22.1-17.9 40-40 40s-40-17.9-40-40v-192c0-59.4-23.1-115.3-65.2-157.4-42-42-97.9-65.2-157.4-65.2H258.2l112.4 112.3c15.6 15.7 15.6 41 0 56.6-7.8 7.8-18 11.7-28.3 11.7s-20.5-3.9-28.3-11.7L135.5 278c-7.5-7.5-11.7-17.7-11.7-28.3s4.2-20.8 11.7-28.3l183.7-183.8c15.7-15.6 41-15.7 56.6 0s15.6 41 0 56.6L262.4 207.6h335.2c80.8 0 156.8 31.4 214 88.6s88.7 133.2 88.6 214z"  horiz-adv-x="1024" />

    
    <glyph glyph-name="ellipsis" unicode="&#59006;" d="M128 384a64 64 0 1 1 128 0 64 64 0 1 1-128 0zM448 384a64 64 0 1 1 128 0 64 64 0 1 1-128 0zM768 384a64 64 0 1 1 128 0 64 64 0 1 1-128 0z"  horiz-adv-x="1024" />

    
    <glyph glyph-name="enviroment" unicode="&#59007;" d="M512 591.9c-72 0-130.5-58.5-130.5-130.5S440 330.9 512 330.9s130.5 58.5 130.5 130.5S584 591.9 512 591.9z m358.6 29.5c-20.3 40.7-49.1 77.3-85.7 108.9-36.3 31.3-78.1 55.9-124.4 73.2-47.7 17.8-97.6 26.8-148.4 26.8h-0.2c-50.8 0-100.7-9-148.4-26.8-46.3-17.3-88.1-41.9-124.4-73.2-36.6-31.6-65.5-68.3-85.7-108.9-21.2-42.6-32-87.7-32-133.9 0-64.3 15.8-130.4 47-196.5 25.8-54.7 62.3-109.9 108.6-164.1 82.8-97 176-166.4 212.2-191.7 6.7-4.7 14.6-7.2 22.8-7.2 8.1 0 16 2.5 22.8 7.2C571-39.5 664.3 29.9 747 126.9c46.2 54.2 82.8 109.4 108.6 164.1 31.2 66.1 47 132.3 47 196.5 0 46.3-10.8 91.3-32 133.9zM654.8 318.7c-38.1-38.1-88.8-59.1-142.8-59.1s-104.6 21-142.8 59.1c-38.1 38.1-59.1 88.8-59.1 142.8s21 104.6 59.1 142.8c38.1 38.1 88.8 59.1 142.8 59.1 53.9 0 104.6-21 142.8-59.1 38.1-38.1 59.1-88.8 59.1-142.8s-21-104.7-59.1-142.8z"  horiz-adv-x="1024" />

    
    <glyph glyph-name="enviroment-o" unicode="&#59008;" d="M512 663.3c-53.9 0-104.6-21-142.8-59.1-38.1-38.1-59.1-88.8-59.1-142.8s21-104.6 59.1-142.8c38.1-38.1 88.8-59.1 142.8-59.1s104.6 21 142.8 59.1c38.1 38.1 59.1 88.8 59.1 142.8s-21 104.6-59.1 142.8c-38.2 38.1-88.9 59.1-142.8 59.1z m0-332.4c-72 0-130.5 58.5-130.5 130.5S440 591.9 512 591.9s130.5-58.5 130.5-130.5S584 330.9 512 330.9z m358.6 290.5c-20.3 40.7-49.1 77.3-85.7 108.9-36.3 31.3-78.1 55.9-124.4 73.2-47.7 17.8-97.6 26.8-148.4 26.8h-0.2c-50.8 0-100.7-9-148.4-26.8-46.3-17.3-88.1-41.9-124.4-73.2-36.6-31.6-65.5-68.3-85.7-108.9-21.2-42.6-32-87.7-32-133.9 0-64.3 15.8-130.4 47-196.5 25.8-54.7 62.3-109.9 108.6-164.1 82.8-97 176-166.4 212.2-191.7 6.7-4.7 14.6-7.2 22.8-7.2 8.1 0 16 2.5 22.8 7.2C571-39.5 664.3 29.9 747 126.9c46.2 54.2 82.8 109.4 108.6 164.1 31.2 66.1 47 132.3 47 196.5 0 46.3-10.8 91.3-32 133.9z m-39.5-134c0-53.7-13.5-109.6-40.2-166.1-22.9-48.8-56-98.6-98.2-148.1C626.8 95.9 553 36.8 512 6.7c-41 30.2-114.8 89.2-180.7 166.5-42.2 49.5-75.3 99.4-98.3 148.2-26.7 56.5-40.2 112.4-40.2 166.1 0 35.2 8.2 69.6 24.5 102.1 16.1 32.2 39.1 61.4 68.5 86.8 29.8 25.8 64.4 46.1 102.6 60.4 39.8 14.8 81.4 22.3 123.5 22.3h0.2c42.2 0 83.8-7.5 123.4-22.3 38.3-14.3 72.8-34.6 102.7-60.4 29.5-25.4 52.5-54.6 68.4-86.8 16.3-32.8 24.5-67.1 24.5-102.2z"  horiz-adv-x="1024" />

    
    <glyph glyph-name="exception" unicode="&#59009;" d="M888 832H135c-39.7 0-72-32.3-72-72v-752c0-39.7 32.3-72 72-72h277c19.9 0 36 16.1 36 36s-16.1 36-36 36H135V760h753v-752h-84c-19.9 0-36-16.1-36-36s16.1-36 36-36h84c39.7 0 72 32.3 72 72V760c0 39.7-32.3 72-72 72zM640-28a36 36 0 1 1 72 0 36 36 0 1 1-72 0zM676 512c-19.9 0-36-16.1-36-36v-376c0-19.9 16.1-36 36-36s36 16.1 36 36V476c0 19.9-16.1 36-36 36zM540 640H228c-19.9 0-36-16.1-36-36s16.1-36 36-36h312c19.9 0 36 16.1 36 36s-16.1 36-36 36zM412 448H228c-19.9 0-36-16.1-36-36s16.1-36 36-36h184c19.9 0 36 16.1 36 36s-16.1 36-36 36z m0-192H228c-19.9 0-36-16.1-36-36s16.1-36 36-36h184c19.9 0 36 16.1 36 36s-16.1 36-36 36z"  horiz-adv-x="1024" />

    
    <glyph glyph-name="error" unicode="&#59010;" d="M994 97.8L605.9 778.5c-9.6 16.8-23.5 30.7-40.3 40.3-25.1 14.3-54.2 18-82 10.3-27.8-7.6-51-25.6-65.3-50.7L30.2 97.8C20.9 81.6 16 63.1 16 44.4c0-59.6 48.4-108 108-108h776.1c18.7 0 37.2 4.9 53.5 14.2 25.1 14.3 43.1 37.5 50.7 65.3s3.9 56.9-10.3 81.9z m-59.1-63c-2.5-9.3-8.5-17-16.9-21.8-5.4-3.1-11.6-4.7-17.8-4.7H124c-19.9 0-36 16.1-36 36 0 6.2 1.6 12.4 4.7 17.8l388.1 680.6c4.8 8.4 12.5 14.4 21.8 16.9 3.2 0.9 6.4 1.3 9.6 1.3 6.2 0 12.3-1.6 17.8-4.7 5.6-3.2 10.2-7.8 13.4-13.4l388.1-680.6c4.7-8.4 5.9-18.1 3.4-27.4zM512 174c-22.1 0-40-17.9-40-40v-12c0-22.1 17.9-40 40-40s40 17.9 40 40v12c0 22.1-17.9 40-40 40z m0 412c-22.1 0-40-17.9-40-40v-268c0-22.1 17.9-40 40-40s40 17.9 40 40V546c0 22.1-17.9 40-40 40z"  horiz-adv-x="1024" />

    
    <glyph glyph-name="exclamation-circle-o" unicode="&#59011;" d="M512 824c59.4 0 117-11.6 171.2-34.5 52.4-22.2 99.4-53.9 139.9-94.3 40.4-40.4 72.2-87.5 94.3-139.9C940.4 501 952 443.4 952 384s-11.6-117-34.5-171.2c-22.2-52.4-53.9-99.4-94.3-139.9-40.4-40.4-87.5-72.2-139.9-94.3C629-44.4 571.4-56 512-56s-117 11.6-171.2 34.5c-52.4 22.2-99.4 53.9-139.9 94.3-40.4 40.4-72.2 87.5-94.3 139.9C83.6 267 72 324.6 72 384s11.6 117 34.5 171.2c22.2 52.4 53.9 99.4 94.3 139.9 40.4 40.4 87.5 72.2 139.9 94.3C395 812.4 452.6 824 512 824m0 72C229.2 896 0 666.8 0 384s229.2-512 512-512 512 229.2 512 512S794.8 896 512 896z m0-640c-22.1 0-40 17.9-40 40V665c0 22.1 17.9 40 40 40s40-17.9 40-40v-369c0-22.1-17.9-40-40-40z m-45-109a45 45 0 1 1 90 0 45 45 0 1 1-90 0z"  horiz-adv-x="1024" />

    
    <glyph glyph-name="exclamation-circle" unicode="&#59012;" d="M512 896C229.2 896 0 666.8 0 384s229.2-512 512-512 512 229.2 512 512S794.8 896 512 896z m-40-231c0 22.1 17.9 40 40 40s40-17.9 40-40v-369c0-22.1-17.9-40-40-40s-40 17.9-40 40V665z m40-563c-24.9 0-45 20.1-45 45s20.1 45 45 45 45-20.1 45-45c0-24.8-20.1-45-45-45z"  horiz-adv-x="1024" />

    
    <glyph glyph-name="exclamation" unicode="&#59013;" d="M512 193c-22.1 0-40 17.9-40 40V728c0 22.1 17.9 40 40 40s40-17.9 40-40v-495c0-22.1-17.9-40-40-40z m-45-110a45 45 0 1 1 90 0 45 45 0 1 1-90 0z"  horiz-adv-x="1024" />

    
    <glyph glyph-name="export" unicode="&#59014;" d="M838.1 329.8c-19.7 0-35.8-16-35.8-35.8v-203.9c0-10.3-8.3-18.6-18.6-18.6h-567c-10.3 0-18.6 8.3-18.6 18.6V677.2c0 10.3 8.3 18.6 18.6 18.6h254.6c19.7 0 35.8 16 35.8 35.8s-16 35.8-35.8 35.8H216.8c-49.7 0-90.1-40.4-90.1-90.1v-587.1c0-49.6 40.4-90 90.1-90h567.1c49.7 0 90.1 40.4 90.1 90.1V294c-0.1 19.7-16.2 35.8-35.9 35.8zM464.3 540c-43-65-53.5-128.9-54.5-136-2.7-19.6 10.9-37.8 30.3-40.5 1.6-0.3 3.4-0.4 5.1-0.4 17.6 0 32.8 13.2 35.4 30.4 0.3 2.4 9.4 56.4 44.5 108.5 46.1 68.4 115.4 103.3 205.6 103.6 1.4-0.1 2.6-0.2 3.6-0.2 19.7 0 35.8 16 35.8 35.8v42.1l100.5-95.6L770 503.9v34.2c0 19.7-16 35.8-35.8 35.8-19.7 0-35.8-16-35.8-35.8v-110.6c0-13.8 8.1-26.5 20.7-32.4 4.7-2.3 10-3.4 15.1-3.4 8.4 0 16.5 3 22.8 8.2l190.1 158.3c7.8 6.7 12.5 16.2 12.7 26.3 0.4 10.2-3.6 20.1-11 27.2l-190 180.9c-10.4 10-25.6 12.6-38.7 7-13.2-5.7-21.6-18.6-21.6-32.9v-90.9C572.8 665.3 501.8 596.4 464.3 540z"  horiz-adv-x="1024" />

    
    <glyph glyph-name="eye-o" unicode="&#59015;" d="M963.4 384.3c-0.3 5.6-8.9 33.3-20.9 62.1-12.3 29.7-33.1 72.7-61.9 108.6-37.7 47.2-84.2 84.9-138.2 111.9-66.3 33.3-143.9 50.1-230.5 50.1-86.5 0-164.1-16.9-230.4-50.2C227.9 640 181.4 602.4 143.3 555c-28.8-36-49.5-79-61.8-108.7-12-28.8-20.5-56.5-20.8-62.1v-0.4c0.3-5.6 8.9-33.3 20.9-62.2 12.4-29.7 33.1-72.7 61.8-108.5 37.7-47.2 84.2-84.9 138.2-111.9 66.7-33.4 144.2-50.3 230.4-50.3 86.3 0 163.8 16.9 230.4 50.3 53.8 26.9 100.3 64.6 138.2 111.8 28.8 35.9 49.6 78.9 61.9 108.6 12 28.8 20.6 56.5 20.9 62.1v0.2 0.4z m-74.2-0.2c-5.7-17.4-27.8-80.2-64.4-125.8l-0.5-0.5c-31.1-39-69.6-70.1-114.3-92.6-56.5-28.3-123.3-42.7-198.4-42.7-75.2 0-141.9 14.4-198.4 42.7-44.6 22.3-83 53.5-114.3 92.7-36.8 45.8-59 108.8-64.7 126.3 5.7 17.4 27.9 80.3 64.7 126.3 31.4 39.2 69.9 70.3 114.4 92.6 56.6 28.3 123.4 42.6 198.6 42.6 75.5 0 142.2-14.3 198.3-42.6 44.6-22.3 83-53.5 114.3-92.7 36.8-46 59-108.9 64.7-126.3zM511.9 558.2c-95.6 0-173.3-77.8-173.3-173.3s77.8-173.3 173.3-173.3 173.3 77.8 173.3 173.3-77.7 173.3-173.3 173.3z m102-173.3c0-27.2-10.6-52.8-29.9-72.1-19.3-19.3-44.9-29.9-72.1-29.9-27.2 0-52.8 10.6-72.1 29.9-19.3 19.3-29.9 44.9-29.9 72.1 0 27.2 10.6 52.8 29.9 72.1 19.3 19.3 44.9 29.9 72.1 29.9 27.2 0 52.8-10.6 72.1-29.9 19.3-19.3 29.9-44.9 29.9-72.1z"  horiz-adv-x="1024" />

    
    <glyph glyph-name="eye" unicode="&#59016;" d="M511.9 486.8c-27.2 0-52.8-10.6-72.1-29.9-19.3-19.3-29.9-44.9-29.9-72.1 0-27.2 10.6-52.8 29.9-72.1 19.3-19.3 44.9-29.9 72.1-29.9 27.2 0 52.8 10.6 72.1 29.9 19.3 19.3 29.9 44.9 29.9 72.1 0 27.2-10.6 52.8-29.9 72.1-19.2 19.3-44.9 29.9-72.1 29.9z m451.5-102.5c-0.3 5.6-8.9 33.3-20.9 62.1-12.3 29.7-33.1 72.7-61.9 108.6-37.7 47.2-84.2 84.9-138.2 111.9-66.3 33.3-143.9 50.1-230.5 50.1-86.5 0-164.1-16.9-230.4-50.2C227.9 640 181.4 602.4 143.3 555c-28.8-36-49.5-79-61.8-108.7-12-28.8-20.5-56.5-20.8-62.1v-0.4c0.3-5.6 8.9-33.3 20.9-62.2 12.4-29.7 33.1-72.7 61.8-108.5 37.7-47.2 84.2-84.9 138.2-111.9 66.7-33.4 144.2-50.3 230.4-50.3 86.3 0 163.8 16.9 230.4 50.3 53.8 26.9 100.3 64.6 138.2 111.8 28.8 35.9 49.6 78.9 61.9 108.6 12 28.8 20.6 56.5 20.9 62.1v0.2 0.4zM511.9 211.5c-95.6 0-173.3 77.8-173.3 173.3s77.8 173.3 173.3 173.3 173.3-77.8 173.3-173.3-77.7-173.3-173.3-173.3z"  horiz-adv-x="1024" />

    
    <glyph glyph-name="file" unicode="&#59019;" d="M875.1 594.2l-278 280.5c-4.5 4.5-9.5 8.3-14.8 11.5-1.4 0.8-2.9 1.6-4.4 2.3-0.9 0.5-1.9 0.9-2.8 1.3-9.1 4-19 6.2-29.1 6.2H200c-39.8 0-72-32.2-72-72v-880c0-39.8 32.2-72 72-72h624c39.8 0 72 32.2 72 72V543.5c0 19-7.5 37.2-20.9 50.7zM783.8 584H584V785.6L783.8 584zM824-56H200V824h312v-240c0-39.8 32.2-72 72-72h240v-568z"  horiz-adv-x="1024" />

    
    <glyph glyph-name="filter" unicode="&#59022;" d="M890.1 719.4c-12.8 31-42.8 51-76.4 51H212c-33.5 0-63.5-20-76.4-51-12.9-31-5.9-66.3 17.8-90.1l273-263.3v-262c0-9.3 3.6-18.3 10.1-25l125.2-129.5c6.9-7.2 16.3-11 25.9-11 4.5 0 9.1 0.9 13.5 2.6 13.6 5.5 22.5 18.7 22.5 33.4V367.7l248.5 261.5c23.8 23.8 30.8 59.1 18 90.2z m-68.9-39.2l-259-272.1c-6.8-6.8-10.5-15.9-10.5-25.5v-322l-53.2 58V381c0 9.5-3.8 18.7-10.5 25.4L204.4 680.2c-4.2 4.2-3.5 8.6-2.3 11.6 1.2 3 4 6.6 9.9 6.6h601.7c5.9 0 8.6-3.6 9.9-6.6 1.2-3 1.8-7.5-2.4-11.6z"  horiz-adv-x="1024" />

    
    <glyph glyph-name="find" unicode="&#59023;" d="M521.3 511.7c-35.8 2.6-72.5-9.8-99.8-37.2-27.4-27.4-39.8-64-37.2-99.8l-98.6-216.9 216.9 98.6c35.8-2.6 72.5 9.8 99.8 37.2 27.4 27.4 39.8 64 37.2 99.8l98.6 216.9-216.9-98.6z m30.3-167.3c-21.9-21.9-57.3-21.9-79.2 0-21.9 21.9-21.9 57.3 0 79.2 21.9 21.9 57.3 21.9 79.2 0 21.9-21.9 21.9-57.3 0-79.2zM512 896C229.2 896 0 666.8 0 384s229.2-512 512-512 512 229.2 512 512S794.8 896 512 896z m0-952C269-56 72 141 72 384S269 824 512 824s440-197 440-440-197-440-440-440z"  horiz-adv-x="1024" />

    
    <glyph glyph-name="flag" unicode="&#59024;" d="M888 640H712v56c0 39.8-32.2 72-72 72H279.6c-4 36-34.5 64-71.6 64h-72c-39.8 0-72-32.2-72-72v-752c0-39.8 32.2-72 72-72h72c39.8 0 72 32.2 72 72V264h360v-56c0-39.8 32.2-72 72-72h176c39.8 0 72 32.2 72 72V568c0 39.8-32.2 72-72 72zM208 8h-72V760h72v-752z m432 328H280V696h360v-360z m248-128H712V568h176v-360z"  horiz-adv-x="1024" />

    
    <glyph glyph-name="folder" unicode="&#59025;" d="M952 704H489l-25 77.9C454.5 811.8 426.8 832 395.4 832H72C32.2 832 0 799.8 0 760v-688c0-39.8 32.2-72 72-72h880c39.8 0 72 32.2 72 72V632c0 39.8-32.2 72-72 72zM72 760h323.4l17.9-56H72v56z m880-688H72V632h880v-560z"  horiz-adv-x="1024" />

    
    <glyph glyph-name="fork" unicode="&#59027;" d="M896 768C896 838.7 838.7 896 768 896S640 838.7 640 768c0-58.2 38.8-107.3 92-122.9v-127.5L511.7 297.4 291.5 517.6V645c53.4 15.4 92.5 64.6 92.5 123C384 838.7 326.7 896 256 896S128 838.7 128 768c0-58 38.6-107 91.5-122.7v-156.9l-0.3-0.3L476 231.3v-108.4c-53.2-15.6-92-64.7-92-122.9 0-70.7 57.3-128 128-128s128 57.3 128 128c0 58.2-38.8 107.3-92 122.9V231.8l256.3 256.3-0.3 0.3V645.1c53.2 15.6 92 64.7 92 122.9z m-696 0c0 30.9 25.1 56 56 56s56-25.1 56-56-25.1-56-56-56-56 25.1-56 56z m368-768c0-30.9-25.1-56-56-56s-56 25.1-56 56 25.1 56 56 56 56-25.1 56-56z m200 712c-30.9 0-56 25.1-56 56s25.1 56 56 56 56-25.1 56-56-25.1-56-56-56z"  horiz-adv-x="1024" />

    
    <glyph glyph-name="forward" unicode="&#59028;" d="M575.1 789.9l436.2-375.4c16.9-15.7 16.9-43.3 0-59L575.1-21.9c-24.4-22.8-63.1-4.7-63.1 29.5V760.4c0 34.1 38.7 52.2 63.1 29.5z m-512 0l436.2-375.4c8.4-7.9 12.6-18.7 12.6-29.5s-4.2-21.6-12.6-29.5L63.1-21.9C38.7-44.6 0-26.5 0 7.6V760.3c0 34.2 38.7 52.3 63.1 29.6z"  horiz-adv-x="1024" />

    
    <glyph glyph-name="frown-o" unicode="&#59029;" d="M512 896C229.2 896 0 666.8 0 384s229.2-512 512-512 512 229.2 512 512S794.8 896 512 896z m311.1-823.1c-40.4-40.4-87.5-72.2-139.9-94.3C629-44.4 571.4-56 512-56s-117 11.6-171.2 34.5c-52.4 22.2-99.4 53.9-139.9 94.3-40.4 40.4-72.2 87.5-94.3 139.9C83.6 267 72 324.6 72 384s11.6 117 34.5 171.2c22.2 52.4 53.9 99.4 94.3 139.9 40.4 40.4 87.5 72.2 139.9 94.3C395 812.4 452.6 824 512 824s117-11.6 171.2-34.5c52.4-22.2 99.4-53.9 139.9-94.3 40.4-40.4 72.2-87.5 94.3-139.9C940.4 501 952 443.4 952 384s-11.6-117-34.5-171.2c-22.2-52.4-53.9-99.5-94.4-139.9z m-182.8 57.6c-19.9 0-36 16.1-36 36 0 50.9-41.4 92.3-92.3 92.3s-92.3-41.4-92.3-92.3c0-19.9-16.1-36-36-36s-36 16.1-36 36c0 90.6 73.7 164.3 164.3 164.3s164.3-73.7 164.3-164.3c0-19.9-16.1-36-36-36zM194.2 513.6a60 60 0 1 1 120 0 60 60 0 1 1-120 0z m515.3 0a60 60 0 1 1 120 0 60 60 0 1 1-120 0z"  horiz-adv-x="1024" />

    
    <glyph glyph-name="frown" unicode="&#59030;" d="M512 896C229.2 896 0 666.8 0 384s229.2-512 512-512 512 229.2 512 512S794.8 896 512 896zM254.2 453.6c-33.1 0-60 26.9-60 60s26.9 60 60 60 60-26.9 60-60-26.9-60-60-60z m386.1-323.1c-19.9 0-36 16.1-36 36 0 50.9-41.4 92.3-92.3 92.3s-92.3-41.4-92.3-92.3c0-19.9-16.1-36-36-36s-36 16.1-36 36c0 90.6 73.7 164.3 164.3 164.3 90.6 0 164.3-73.7 164.3-164.3 0-19.9-16.1-36-36-36z m129.2 323.1c-33.1 0-60 26.9-60 60s26.9 60 60 60 60-26.9 60-60-26.9-60-60-60z"  horiz-adv-x="1024" />

    
    <glyph glyph-name="gift" unicode="&#59031;" d="M888 576H640c70.7 0 128 57.3 128 128S710.7 832 640 832s-128-57.3-128-128c0 70.7-57.3 128-128 128s-128-57.3-128-128 57.3-128 128-128H136c-39.8 0-72-32.2-72-72v-112c0-39.8 32.2-72 72-72h-8v-312c0-39.8 32.2-72 72-72h624c39.8 0 72 32.2 72 72V320h-8c39.8 0 72 32.2 72 72V504c0 39.8-32.2 72-72 72z m-504 72c-30.9 0-56 25.1-56 56s25.1 56 56 56 56-25.1 56-56v-56h-56z m92-640H200V320h276v-312z m0 384H136V504h340v-112z m108 312c0 30.9 25.1 56 56 56s56-25.1 56-56-25.1-56-56-56h-56v56z m240-696H548V320h276v-312z m64 384H548V504h340v-112z"  horiz-adv-x="1024" />

    
    <glyph glyph-name="hdd" unicode="&#59036;" d="M786.5 765l-0.1 0.2c-6.5 20.2-25.1 33.8-46.3 33.8H277.9c-21.1 0-40.2-14-46.3-34v-0.1c-0.4-1.3-34.3-122.8-67.7-243.2C96 277.3 96 275.6 96 274.2v-257.4c0-27 22.1-49 49.2-49H878c27.1 0 49.2 22 49.2 48.9l0.6 265.3-141.3 483zM864 224v-193H159.2V224H864z m-3.4 63.2H162.5l126.4 448.6h440.3l131.4-448.6zM588.4 70.3c17.4 0 31.6 14.2 31.6 31.6v51.2c0 17.4-14.2 31.6-31.6 31.6-17.4 0-31.6-14.2-31.6-31.6v-51.2c0-17.4 14.2-31.6 31.6-31.6z m102.8 0c17.4 0 31.6 14.2 31.6 31.6v51.2c0 17.4-14.2 31.6-31.6 31.6-17.4 0-31.6-14.2-31.6-31.6v-51.2c0-17.4 14.2-31.6 31.6-31.6z m102.4 0c17.4 0 31.6 14.2 31.6 31.6v51.2c0 17.4-14.2 31.6-31.6 31.6-17.4 0-31.6-14.2-31.6-31.6v-51.2c0-17.4 14.2-31.6 31.6-31.6z"  horiz-adv-x="1024" />

    
    <glyph glyph-name="heart-o" unicode="&#59037;" d="M1000.1 648.1c-15.5 37.3-37.6 70.6-65.7 98.9-54.4 54.8-125.8 85-201 85-85.7 0-166-39-221.4-107.4C456.6 793 376.3 832 290.6 832c-75.1 0-146.5-30.4-201.1-85.6-28.2-28.5-50.4-61.9-65.8-99.3-16-38.8-24-79.9-23.6-122.2 0.7-91.7 40.1-177.2 108.1-234.8 3.1-2.6 6-5.1 8.9-7.8 14.9-13.4 58-52.8 112.6-102.7 93.5-85.5 209.9-191.9 257.5-234.2 7-6.1 15.8-9.5 24.9-9.5 9.2 0 18.1 3.4 24.9 9.5 34.5 30.7 105.8 95.9 181.4 165 74.2 67.8 150.9 138 195.8 178.2 69.5 57.9 109.6 144.4 109.9 237.3 0.1 42.5-8 83.6-24 122.2z m-432.3 23.5c40.9 53.2 101.2 83.7 165.6 83.7 54.8 0 106.9-22.2 146.8-62.4 20.9-21 37.5-45.9 49.2-74.1 12-29.1 18.1-60.2 18.1-92.3-0.1-35.5-7.7-69.6-22.7-101.3-14.3-29.9-34.9-56.7-59.7-77.5l-1.8-1.6c-38.9-34.9-105.4-95.4-197.5-179.8-72-65.9-121.1-110.7-153.7-140.2-49.7 44.9-130.7 118.8-202.3 184.2l-47.3 43.2c-45.2 41.4-80.9 74-94.2 85.9-0.8 0.7-1.6 1.4-2.4 2.2-2.6 2.3-5.3 4.7-8.2 7.1-51 43.3-80.5 107.7-81 176.7-0.2 32 5.8 63 17.8 92.2 11.8 28.4 28.4 53.5 49.4 74.6 40.2 40.6 92.4 62.9 146.8 62.9 64.3 0 124.7-30.4 165.6-83.5 13.3-17.2 34.1-27.4 55.8-27.4 21.6-0.1 42.5 10.2 55.7 27.4z"  horiz-adv-x="1025" />

    
    <glyph glyph-name="home" unicode="&#59038;" d="M932.4 453.8L560.3 811.9c-27.4 24.8-69.1 24.8-96.5 0L91.6 453.8c-14.8-13.3-15.9-36-2.6-50.8 13.3-14.8 36.1-15.9 50.8-2.6L512 758.5l372.2-358.1c14.8-13.3 37.5-12.2 50.8 2.6 13.3 14.8 12.2 37.5-2.6 50.8zM833 321c-19.9 0-36-16.1-36-36v-277H654V248c0 39.8-32.2 72-72 72H442c-39.8 0-72-32.2-72-72v-240H227V285c0 19.9-16.1 36-36 36s-36-16.1-36-36v-277c0-39.8 32.2-72 72-72h570c39.8 0 72 32.2 72 72V285c0 19.9-16.1 36-36 36z m-391-73h140v-240H442V248z"  horiz-adv-x="1024" />

    
    <glyph glyph-name="heart" unicode="&#59039;" d="M1000.1 648.1c-15.5 37.3-37.6 70.6-65.7 98.9-54.4 54.8-125.8 85-201 85-85.7 0-166-39-221.4-107.4C456.6 793 376.3 832 290.6 832c-75.1 0-146.5-30.4-201.1-85.6-28.2-28.5-50.4-61.9-65.8-99.3-16-38.8-24-79.9-23.6-122.2 0.7-91.7 40.1-177.2 108.1-234.8 3.1-2.6 6-5.1 8.9-7.8 14.9-13.4 58-52.8 112.6-102.7 93.5-85.5 209.9-191.9 257.5-234.2 7-6.1 15.8-9.5 24.9-9.5 9.2 0 18.1 3.4 24.9 9.5 34.5 30.7 105.8 95.9 181.4 165 74.2 67.8 150.9 138 195.8 178.2 69.5 57.9 109.6 144.4 109.9 237.3 0.1 42.5-8 83.6-24 122.2z"  horiz-adv-x="1025" />

    
    <glyph glyph-name="hourglass" unicode="&#59040;" d="M860 8h-92V227L575.7 384 768 541V760h92c19.9 0 36 16.1 36 36s-16.1 36-36 36H164c-19.9 0-36-16.1-36-36s16.1-36 36-36h92v-219l192.3-157L256 227v-219h-92c-19.9 0-36-16.1-36-36s16.1-36 36-36h696c19.9 0 36 16.1 36 36s-16.1 36-36 36zM328 581V760h368v-179L514.5 434l-2.5 2-2.5-2L328 581z m368-573H328V187l184 149.1L696 187v-179z"  horiz-adv-x="1024" />

    
    <glyph glyph-name="idcard" unicode="&#59042;" d="M200 128h176c39.8 0 72 32.2 72 72v88c0 55.2-27.9 103.8-70.4 132.6 23.7 23.2 38.4 55.6 38.4 91.4 0 70.7-57.3 128-128 128s-128-57.3-128-128c0-35.8 14.7-68.2 38.4-91.4C155.9 391.8 128 343.2 128 288v-88c0-39.8 32.2-72 72-72z m88 440c30.9 0 56-25.1 56-56s-25.1-56-56-56-56 25.1-56 56 25.1 56 56 56z m-88-285c0 0.3 0 0.6 0.1 1-0.1 1.3-0.1 2.7-0.1 4 0 48.6 39.4 88 88 88s88-39.4 88-88c0-1.4 0-2.7-0.1-4 0.1-0.3 0.1-0.6 0.1-1v-78c0-2.8-2.2-5-5-5H205c-2.8 0-5 2.2-5 5v78z m752 485H72c-39.8 0-72-32.2-72-72v-624c0-39.8 32.2-72 72-72h880c39.8 0 72 32.2 72 72V696c0 39.8-32.2 72-72 72z m0-696H72V696h880v-624zM548 348h248c19.9 0 36 16.1 36 36s-16.1 36-36 36H548c-19.9 0-36-16.1-36-36s16.1-36 36-36z m0-164h184c19.9 0 36 16.1 36 36s-16.1 36-36 36H548c-19.9 0-36-16.1-36-36s16.1-36 36-36z m0 328h312c19.9 0 36 16.1 36 36s-16.1 36-36 36H548c-19.9 0-36-16.1-36-36s16.1-36 36-36z"  horiz-adv-x="1024" />

    
    <glyph glyph-name="inbox" unicode="&#59044;" d="M885.2 449.7l-0.2 0.8-112.2 285.1c-5 16.1-19.9 27.2-36.8 27.2H281.2c-17 0-32.1-11.3-36.9-27.6L139.4 453l-0.3-0.7-0.2-0.8c-1.3-4.9-1.7-9.9-1-14.8-0.1-1.6-0.2-3.2-0.2-4.8V66c0-33.5 27.3-60.8 60.8-60.8h627.2c33.5 0 60.8 27.3 60.9 60.8V431.9c0 1.3 0 2.6-0.1 3.7 0.4 4.9 0 9.6-1.3 14.1z m-295.8 43l-0.3-15.7c-0.8-44.9-31.8-75.1-77.1-75.1-22.1 0-41.1 7.1-54.8 20.6S436 454.8 435.6 477l-0.3 15.7H229.5L309 686h399.2l81.7-193.3H589.4z m-375-76.8h157.3c24.3-57.1 76-90.8 140.4-90.8 33.7 0 65 9.4 90.3 27.2 22.2 15.6 39.5 37.4 50.7 63.6h156.5V82H214.4V415.9z"  horiz-adv-x="1024" />

    
    <glyph glyph-name="indent-left" unicode="&#59045;" d="M978.432 79.872H45.568C20.48 79.872 0 61.952 0 39.936S20.48 0 45.568 0H977.92c25.088 0 45.568 17.92 45.568 39.936s-19.968 39.936-45.056 39.936z m-724.48 502.784L12.288 393.216c-0.512-0.512-1.536-1.024-2.048-2.048-4.096-5.12-3.072-12.8 2.048-16.896l241.664-189.44c2.048-1.536 4.608-2.56 7.168-2.56 6.656 0 11.776 5.12 11.776 11.776v378.88c0 2.56-1.024 5.12-2.56 7.168-3.584 5.632-10.752 6.656-16.384 2.56zM39.936 688.128h944.128c22.016 0 39.936 17.92 39.936 39.936S1006.08 768 984.064 768H39.936C17.92 768 0 750.08 0 728.064s17.92-39.936 39.936-39.936z m948.224-92.16H483.84c-19.968 0-35.84-17.92-35.84-39.936s15.872-39.936 35.84-39.936h504.32c19.968 0 35.84 17.92 35.84 39.936s-15.872 39.936-35.84 39.936z m0-172.032H483.84c-19.968 0-35.84-17.92-35.84-39.936s15.872-39.936 35.84-39.936h504.32c19.968 0 35.84 17.92 35.84 39.936s-15.872 39.936-35.84 39.936z m0-172.032H483.84c-19.968 0-35.84-17.92-35.84-39.936s15.872-39.936 35.84-39.936h504.32c19.968 0 35.84 17.92 35.84 39.936s-15.872 39.936-35.84 39.936z"  horiz-adv-x="1024" />

    
    <glyph glyph-name="indent-right" unicode="&#59046;" d="M978.432 79.872H45.568C20.48 79.872 0 61.952 0 39.936S20.48 0 45.568 0H977.92c25.088 0 45.568 17.92 45.568 39.936s-19.968 39.936-45.056 39.936z m9.728 172.032H483.84c-19.968 0-35.84-17.92-35.84-39.936s15.872-39.936 35.84-39.936h504.32c19.968 0 35.84 17.92 35.84 39.936s-15.872 39.936-35.84 39.936zM39.936 688.128h944.128c22.016 0 39.936 17.92 39.936 39.936S1006.08 768 984.064 768H39.936C17.92 768 0 750.08 0 728.064s17.92-39.936 39.936-39.936z m948.224-92.16H483.84c-19.968 0-35.84-17.92-35.84-39.936s15.872-39.936 35.84-39.936h504.32c19.968 0 35.84 17.92 35.84 39.936s-15.872 39.936-35.84 39.936z m0-172.032H483.84c-19.968 0-35.84-17.92-35.84-39.936s15.872-39.936 35.84-39.936h504.32c19.968 0 35.84 17.92 35.84 39.936s-15.872 39.936-35.84 39.936zM31.744 570.88v-374.784c0-6.656 5.12-11.776 11.776-11.776 2.56 0 5.12 1.024 7.168 2.56L289.28 374.272c5.12 4.096 6.144 11.264 2.048 16.896-0.512 0.512-1.024 1.536-2.048 2.048L51.2 580.608c-5.12 4.096-12.8 3.072-16.896-2.048-1.536-2.048-2.56-4.608-2.56-7.68z"  horiz-adv-x="1024" />

    
    <glyph glyph-name="info-cirlce-o" unicode="&#59047;" d="M512 896C229.2 896 0 666.8 0 384s229.2-512 512-512 512 229.2 512 512S794.8 896 512 896z m311.1-823.1c-40.4-40.4-87.5-72.2-139.9-94.3C629-44.4 571.4-56 512-56c-59.4 0-117 11.6-171.2 34.5-52.4 22.2-99.4 53.9-139.9 94.3-40.4 40.4-72.2 87.5-94.3 139.9C83.6 267 72 324.6 72 384c0 59.4 11.6 117 34.5 171.2 22.2 52.4 53.9 99.4 94.3 139.9 40.4 40.4 87.5 72.2 139.9 94.3C395 812.4 452.6 824 512 824c59.4 0 117-11.6 171.2-34.5 52.4-22.2 99.4-53.9 139.9-94.3 40.4-40.4 72.2-87.5 94.3-139.9C940.4 501 952 443.4 952 384c0-59.4-11.6-117-34.5-171.2-22.2-52.4-53.9-99.5-94.4-139.9zM630.2 190.4H545V540.5c0 19.9-16.1 36-36 36h-96c-19.9 0-36-16.1-36-36s16.1-36 36-36h60v-314.1h-85.2c-19.9 0-36-16.1-36-36s16.1-36 36-36H630.2c19.9 0 36 16.1 36 36s-16.1 36-36 36zM473 675.5a36 36 0 1 1 72 0 36 36 0 1 1-72 0z"  horiz-adv-x="1024" />

    
    <glyph glyph-name="info" unicode="&#59048;" d="M660.2 136.4H575V540.5c0 19.9-16.1 36-36 36h-96c-19.9 0-36-16.1-36-36s16.1-36 36-36h60v-368.1h-85.2c-19.9 0-36-16.1-36-36s16.1-36 36-36H660.2c19.9 0 36 16.1 36 36s-16.1 36-36 36zM503 675.5a36 36 0 1 1 72 0 36 36 0 1 1-72 0z"  horiz-adv-x="1024" />

    
    <glyph glyph-name="info-cirlce" unicode="&#59049;" d="M512 896C229.2 896 0 666.8 0 384s229.2-512 512-512 512 229.2 512 512S794.8 896 512 896z m-3-184.5c19.9 0 36-16.1 36-36s-16.1-36-36-36-36 16.1-36 36 16.1 36 36 36z m157.2-557.1c0-19.9-16.1-36-36-36H387.8c-19.9 0-36 16.1-36 36s16.1 36 36 36H473V504.5h-60c-19.9 0-36 16.1-36 36s16.1 36 36 36h96c19.9 0 36-16.1 36-36v-350.1h85.2c19.9 0 36-16.1 36-36z"  horiz-adv-x="1024" />

    
    <glyph glyph-name="key" unicode="&#59050;" d="M876.1 427.2C772.2 531.1 608.8 539 495.8 451.1L126.6 820.4c-14.1 14.1-36.9 14.1-50.9 0-14.1-14.1-14.1-36.9 0-50.9L445 400.2c-87.9-113-80-276.4 23.9-380.3 112.5-112.5 294.8-112.5 407.3 0s112.4 294.8-0.1 407.3z m-50.9-356.4c-84.4-84.4-221.1-84.4-305.5 0s-84.4 221.1 0 305.5 221.1 84.4 305.5 0 84.3-221.1 0-305.5zM352.8 595.5l76.4 76.4c14.1 14.1 14.1 36.9 0 50.9-14.1 14.1-36.9 14.1-50.9 0l-76.4-76.4 50.9-50.9zM333 768c14.1 14.1 14.1 36.9 0 50.9-14 14.1-36.8 14.1-50.9 0l-76.4-76.4 50.9-50.9L333 768z"  horiz-adv-x="1024" />

    
    <glyph glyph-name="isv" unicode="&#59051;" d="M860 292c-19.9 0-36-16.1-36-36v-248H200V256c0 19.9-16.1 36-36 36s-36-16.1-36-36v-248c0-39.8 32.2-72 72-72h624c39.8 0 72 32.2 72 72V256c0 19.9-16.1 36-36 36z m28 540H136c-39.8 0-72-32.2-72-72v-203.5C64 460.7 141.7 383 237.5 383c56 0 105.8 26.5 137.5 67.7 31.7-41.2 81.5-67.7 137.5-67.7 55.7 0 105.3 26.2 137 67 31.7-40.8 81.3-67 137-67 95.8 0 173.5 77.7 173.5 173.5V760c0 39.8-32.2 72-72 72zM339 658.5v-102c0-56.1-45.4-101.5-101.5-101.5S136 500.4 136 556.5V760h203v-101.5zM512.5 455C456.4 455 411 500.4 411 556.5V760h202v-203.5c0-3.8 0.1-7.6 0.4-11.4-5.7-50.7-48.7-90.1-100.9-90.1zM888 556.5c0-56.1-45.4-101.5-101.5-101.5S685 500.4 685 556.5V760h203v-203.5z"  horiz-adv-x="1024" />

    
    <glyph glyph-name="jpgfile" unicode="&#59052;" d="M874.6 594.2L596.8 874.7c-4.5 4.5-9.4 8.3-14.7 11.5-1.4 0.8-2.8 1.6-4.3 2.3-0.9 0.5-1.9 0.9-2.8 1.3-9 4-18.9 6.2-29 6.2H201c-39.8 0-73-32.2-73-72v-880c0-39.8 33.2-72 73-72h623c39.8 0 71 32.2 71 72V543.5c0 19-7 37.2-20.4 50.7zM583 785.6L783.8 584H583V785.6zM823-56H200V824h311v-240c0-39.8 33.2-72 73-72h239v-568zM350 199.5c0-24.2-7.5-31.4-21.9-31.4-9 0-18.4 5.8-24.8 18.5L272.9 164c13.4-22.9 32.3-34.2 61.3-34.2 41.6 0 60.8 29.9 60.8 66.2V319h-45v-119.5zM501.3 319H437v-186h44v62h21.6c39.1 0 73.1 19.6 73.1 63.6 0 45.8-33.5 60.4-74.4 60.4z m-0.8-89H481v53h18.2c21.5 0 33.4-6.2 33.4-24.9 0-18.1-10.5-28.1-32.1-28.1z m182.5 9v-36h30v-30.1c-4-2.9-11-4.7-17.7-4.7-34.3 0-50.7 21.4-50.7 58.2 0 36.1 19.7 57.4 47.1 57.4 15.3 0 25-6.2 34-14.4l23.7 28.3c-12.7 12.8-32.1 24.2-59.2 24.2-49.6 0-91.1-35.3-91.1-97 0-62.7 40-95.1 91.5-95.1 25.9 0 49.2 10.2 61.5 22.6V239H683z"  horiz-adv-x="1024" />

    
    <glyph glyph-name="laptop" unicode="&#59053;" d="M887.4 759.9v-559.4H134.8V759.9h752.6m0 72H134.8c-39.8 0-72-32.2-72-72v-559.4c0-39.8 32.2-72 72-72h752.6c39.8 0 72 32.2 72 72V759.9c0 39.8-32.3 72-72 72z m36-848.2H98.8c-19.9 0-36 16.1-36 36s16.1 36 36 36h824.6c19.9 0 36-16.1 36-36s-16.1-36-36-36z"  horiz-adv-x="1024" />

    
    <glyph glyph-name="layout" unicode="&#59054;" d="M100 624a36 36 0 1 1 72 0 36 36 0 1 1-72 0z m852 144H72c-39.8 0-72-32.2-72-72v-624c0-39.8 32.2-72 72-72h880c39.8 0 72 32.2 72 72V696c0 39.8-32.2 72-72 72zM256 72H72V480h184v-408z m696 0H328V241c0-0.5 0.4-1 1-1h622c0.5 0 1 0.4 1 1v-169z m0 239c0 0.5-0.4 1-1 1H329c-0.5 0-1-0.4-1-1V480h624v-169z m0 241H72V696h880v-144z m-748 72a36 36 0 1 1 72 0 36 36 0 1 1-72 0z m104 0a36 36 0 1 1 72 0 36 36 0 1 1-72 0z"  horiz-adv-x="1024" />

    
    <glyph glyph-name="left-circle-o" unicode="&#59055;" d="M512 823.071c59.342 0 116.886-11.588 171.033-34.466 52.349-22.178 99.303-53.848 139.763-94.208 40.361-40.36 72.13-87.415 94.208-139.764 22.978-54.247 34.567-111.79 34.567-171.133s-11.589-116.885-34.467-171.032c-22.178-52.35-53.847-99.304-94.208-139.764-40.36-40.36-87.414-72.13-139.763-94.208C628.886-44.482 571.342-56.07 512-56.07s-116.886 11.588-171.033 34.466c-52.349 22.178-99.303 53.848-139.763 94.208-40.361 40.36-72.13 87.415-94.208 139.764-22.978 54.247-34.567 111.79-34.567 171.132s11.589 116.886 34.467 171.033c22.178 52.35 53.847 99.303 94.208 139.764 40.36 40.36 87.414 72.13 139.763 94.208C395.114 811.483 452.658 823.071 512 823.071m0 71.93C229.476 895.001 0.5 666.025 0.5 383.501S229.476-128 512-128s511.5 228.976 511.5 511.5S794.524 895.001 512 895.001zM331.177 384.5c0-9.99 4.096-19.481 11.388-26.275l235.57-220.784c14.486-13.587 37.264-12.888 50.85 1.598 13.587 14.486 12.888 37.264-1.598 50.85L419.79 384.5l207.497 194.51c14.486 13.587 15.186 36.365 1.599 50.85-13.587 14.487-36.365 15.186-50.85 1.6l-235.57-220.785c-7.193-6.694-11.29-16.184-11.29-26.174z"  horiz-adv-x="1024" />

    
    <glyph glyph-name="left-square-o" unicode="&#59056;" d="M888.5 760.5v-753.1h-753V760.5h753m0 72h-753c-39.8 0-72-32.2-72-72v-753.1c0-39.8 32.2-72 72-72h753.1c39.8 0 72 32.2 72 72V760.5c-0.1 39.8-32.3 72-72.1 72zM331.3 357.8l235.8-221c14.5-13.6 37.3-12.9 50.9 1.6 13.6 14.5 12.9 37.3-1.6 50.9L408.7 384l207.8 194.8c14.5 13.6 15.2 36.4 1.6 50.9s-36.4 15.2-50.9 1.6l-235.8-221C324.1 403.5 320 394 320 384s4.1-19.5 11.3-26.2z"  horiz-adv-x="1024" />

    
    <glyph glyph-name="left-square" unicode="&#59057;" d="M888.5 832.5h-753c-39.8 0-72-32.2-72-72v-753.1c0-39.8 32.2-72 72-72h753.1c39.8 0 72 32.2 72 72V760.5c-0.1 39.8-32.3 72-72.1 72zM616.4 189.3c14.5-13.6 15.2-36.4 1.6-50.9s-36.4-15.2-50.9-1.6l-235.8 221C324.1 364.5 320 374 320 384s4.1 19.5 11.4 26.3l235.8 221c14.5 13.6 37.3 12.9 50.9-1.6 13.6-14.5 12.9-37.3-1.6-50.9L408.7 384l207.7-194.7z"  horiz-adv-x="1024" />

    
    <glyph glyph-name="left" unicode="&#59058;" d="M724.4 0.3c-9.6 0-19.3 3.2-27.4 9.6L273.2 350.8c-10.3 8.3-16.3 20.8-16.3 34.1 0 13.2 6 25.8 16.3 34l422 339.1c18.8 15.1 46.3 12.1 61.4-6.7 15.1-18.8 12.1-46.3-6.7-61.4l-379.6-305L751.8 78c18.8-15.1 21.8-42.6 6.7-61.4-8.7-10.7-21.3-16.3-34.1-16.3z"  horiz-adv-x="1024" />

    
    <glyph glyph-name="left-circle" unicode="&#59059;" d="M512 895.001C229.476 895.001 0.5 666.025 0.5 383.501S229.476-128 512-128s511.5 228.976 511.5 511.5S794.524 895.001 512 895.001z m116.986-755.962c-13.587-14.486-36.365-15.185-50.85-1.598l-235.57 220.784c-7.293 6.794-11.39 16.284-11.39 26.275s4.097 19.48 11.29 26.174l235.57 220.784c14.485 13.587 37.263 12.888 50.85-1.598 13.587-14.486 12.887-37.264-1.599-50.85L419.79 384.5l207.597-194.61c14.486-13.587 15.185-36.365 1.599-50.85z"  horiz-adv-x="1024" />

    
    <glyph glyph-name="link" unicode="&#59060;" d="M541.7 230.3L362.9 51.4c-24.7-24.7-57.6-38.4-92.6-38.4-35 0-67.9 13.6-92.6 38.4S139.2 109 139.2 144c0 35 13.6 67.9 38.4 92.6l178.9 178.9c14.1 14.1 14.1 36.9 0 50.9-14.1 14.1-36.9 14.1-50.9 0L126.7 287.6C88.3 249.2 67.2 198.2 67.2 144c0-54.2 21.1-105.2 59.5-143.5 39.6-39.6 91.6-59.4 143.5-59.4 52 0 104 19.8 143.5 59.4l178.9 178.9c14.1 14.1 14.1 36.9 0 50.9s-36.8 14-50.9 0z m357.7 542.9c-79.2 79.2-207.9 79.2-287.1 0L433.4 594.3c-14.1-14.1-14.1-36.9 0-50.9 14.1-14.1 36.9-14.1 50.9 0l178.9 178.9c51.1 51.1 134.2 51.1 185.3 0 24.7-24.7 38.4-57.6 38.4-92.6s-13.6-67.9-38.4-92.6L669.6 358.2c-14.1-14.1-14.1-36.9 0-50.9 7-7 16.2-10.5 25.5-10.5s18.4 3.5 25.5 10.5l178.9 178.9c79.1 79.1 79.1 207.9-0.1 287zM486.5 307.5l102 102c14.1 14.1 14.1 36.9 0 50.9-14.1 14.1-36.9 14.1-50.9 0l-102-102c-14.1-14.1-14.1-36.9 0-50.9 7-7 16.2-10.5 25.5-10.5s18.3 3.5 25.4 10.5z"  horiz-adv-x="1024" />

    
    <glyph glyph-name="loading" unicode="&#59061;" d="M512-128c-69.1 0-136.2 13.5-199.3 40.2C251.7-62 197-25 150 22c-47 47-84 101.7-109.8 162.7C13.5 247.8 0 314.9 0 384c0 19.9 16.1 36 36 36s36-16.1 36-36c0-59.4 11.6-117 34.6-171.3 22.2-52.4 53.9-99.5 94.3-139.9 40.4-40.4 87.5-72.2 139.9-94.3C395-44.4 452.6-56 512-56c59.4 0 117 11.6 171.3 34.6 52.4 22.2 99.5 53.9 139.9 94.3 40.4 40.4 72.2 87.5 94.3 139.9C940.4 267 952 324.6 952 384c0 59.4-11.6 117-34.6 171.3-22.2 52.4-53.9 99.4-94.3 139.9-40.4 40.4-87.5 72.2-139.9 94.3C629 812.4 571.4 824 512 824c-19.9 0-36 16.1-36 36s16.1 36 36 36c69.1 0 136.2-13.5 199.3-40.2C772.3 830 827 793 874 746c47-47 83.9-101.8 109.7-162.7 26.7-63.1 40.2-130.2 40.2-199.3s-13.5-136.2-40.2-199.3C958 123.7 921 69 874 22c-47-47-101.8-83.9-162.7-109.7-63.1-26.8-130.2-40.3-199.3-40.3z"  horiz-adv-x="1024" />

    
    <glyph glyph-name="loading_" unicode="&#59062;" d="M988 348c-19.9 0-36 16.1-36 36 0 59.4-11.6 117-34.6 171.3-22.2 52.4-53.9 99.4-94.3 139.9-40.4 40.4-87.5 72.2-139.9 94.3C629 812.4 571.4 824 512 824c-19.9 0-36 16.1-36 36s16.1 36 36 36c69.1 0 136.2-13.5 199.3-40.3C772.3 830 827 793 874 746c47-47 83.9-101.8 109.7-162.7 26.7-63.1 40.2-130.2 40.2-199.3 0.1-19.9-16-36-35.9-36z"  horiz-adv-x="1024" />

    
    <glyph glyph-name="lock" unicode="&#59063;" d="M824.1 613.9c-17.3 42.7-41.8 80.9-72.7 113.4-30.9 32.8-67.1 58.7-107.6 76.9-41.9 18.7-86.2 28.2-131.8 28.2-45.6 0-90-9.5-131.9-28.3-40.5-18.1-76.6-44-107.6-76.8-31.2-32.9-55.7-71.1-72.7-113.4-17.7-43.8-26.7-90.4-26.7-138.6v-470.2c0-38.4 29.7-69.6 66.3-69.6h544.9c36.6 0 66.3 31.2 66.1 69.6v415l0.2 19.1v36.1c0.2 48-8.8 94.6-26.5 138.6zM406.7 741.2h0.2l1.3 0.5c32.7 14.9 67.6 22.4 103.7 22.4 35.9 0 70.9-7.6 103.8-22.2 31.9-14.4 60.9-35.1 86-61.4 25.3-26.7 45-57.6 58.9-92 14.5-35.8 21.8-73.8 21.8-113.2v-29.6h-541v29.7c0 39 7.3 77 21.8 113.1 14 34.7 33.9 65.6 58.9 91.9 24.9 26.2 53.2 46.7 84.6 60.8z m376-363.6v-372.4c0-0.6-0.1-1.1-0.2-1.4H241.6c-0.1 0.3-0.2 0.8-0.2 1.4V377.6h541.3zM480.4 224v-89.5c0-17.5 14.2-31.7 31.7-31.7s31.7 14.2 31.7 31.7v89.7c16.8 10.8 26.9 29 26.9 49.2 0 32.4-26.3 58.7-58.7 58.7s-58.7-26.3-58.7-58.7c0.1-19.9 10.4-38.7 27.1-49.4z"  horiz-adv-x="1024" />

    
    <glyph glyph-name="login" unicode="&#59064;" d="M442.9 273.5c-14.1-14.1-14.1-36.8-0.1-50.8 7-7 16.3-10.6 25.5-10.6s18.5 3.5 25.5 10.5l135.8 135.8c14.1 14.1 14.1 37.1 0 51.2L493.8 545.3c-14.1 14.1-36.9 14.1-50.9 0-14.1-14.1-14.1-36.9 0-50.9l74.3-74.3-481.1-0.1c-19.9 0-36-16.1-36-36s16.2-36.1 36-36.1l481.1-0.1-74.3-74.3zM983.7 583.2C957.9 644.2 921 699 874 746S772.3 830 711.3 855.8C648.2 882.5 581.1 896 512 896c-81.3 0-159.1-18.5-231.2-55-68.7-34.9-129.7-85.7-176.3-147.2-12.1-15.8-9-38.4 6.8-50.4 15.8-12.1 38.4-9 50.4 6.8 40.2 52.8 92.6 96.6 151.7 126.5C375.3 808.1 442.1 824 512 824c59.4 0 117-11.6 171.2-34.5 52.4-22.1 99.5-53.9 139.9-94.3 40.4-40.4 72.1-87.5 94.3-139.9C940.4 501 952 443.4 952 384s-11.6-117-34.5-171.2c-22.1-52.4-53.9-99.5-94.3-139.9-40.4-40.4-87.5-72.1-139.9-94.3C629-44.5 571.4-56 512-56c-69.9 0-136.7 15.9-198.8 47.4-59 29.9-111.5 73.7-151.7 126.5-12 15.8-34.6 18.8-50.4 6.8-15.8-12-18.8-34.6-6.8-50.4 46.8-61.5 107.8-112.4 176.5-147.2 72.1-36.5 149.9-55 231.2-55 69.1 0 136.2 13.5 199.3 40.2C772.2-62 827-25 874 22s84 101.7 109.8 162.7c26.7 63.1 40.2 130.2 40.2 199.3s-13.5 136.2-40.3 199.2z"  horiz-adv-x="1024" />

    
    <glyph glyph-name="logout" unicode="&#59065;" d="M772 29c-75.8-55.6-165.7-85-260-85-59.4 0-117 11.6-171.2 34.5-52.4 22.1-99.5 53.9-139.9 94.3-40.4 40.4-72.1 87.5-94.3 139.9C83.6 267 72 324.6 72 384s11.6 117 34.5 171.2c22.1 52.4 53.8 99.5 94.3 139.9 40.5 40.4 87.5 72.1 139.9 94.3C395 812.4 452.6 824 512 824c94.3 0 184.2-29.4 260-85 16-11.8 38.5-8.3 50.3 7.7s8.3 38.5-7.7 50.3C726.4 861.8 621.7 896 512 896c-69.1 0-136.2-13.5-199.3-40.2C251.7 830 197 793 150 746S66 644.3 40.2 583.3C13.5 520.2 0 453.1 0 384s13.5-136.2 40.2-199.3C66 123.7 103 69 150 22s101.7-84 162.7-109.8c63.1-26.7 130.2-40.2 199.3-40.2 109.7 0 214.4 34.2 302.6 99 16 11.7 19.5 34.3 7.7 50.3-11.7 16-34.3 19.5-50.3 7.7zM1013.6 409.5L877.8 545.3c-14.1 14.1-36.9 14.1-50.9 0-14.1-14.1-14.1-36.9 0-50.9l74.3-74.3-481.1-0.1c-19.9 0-36-16.1-36-36s16.2-36.1 36-36.1l481.1-0.1-74.3-74.3c-14.1-14.1-14.1-36.8-0.1-50.8 7-7 16.3-10.6 25.5-10.6s18.5 3.5 25.5 10.5l135.8 135.8c14 14 14 37.1 0 51.1z"  horiz-adv-x="1024" />

    
    <glyph glyph-name="mail" unicode="&#59066;" d="M885.9 768.1H132.8c-39.8 0-72-32.2-72-72v-625.9c0-39.8 32.2-72 72-72h753.1c39.8 0 72 32.2 72 72V696.1c0 39.7-32.3 72-72 72z m-77.2-72L540.6 472l-1.6-1.3-1.4-1.5c-6.8-7.2-16-11.1-25.9-11.2h-0.2c-9.8 0-19 3.9-25.8 10.9l-1.4 1.4-273.8 225.8h598.2z m77.2-625.9H132.8V666.8l302.8-249.5c20.4-20.2 47.2-31.3 76-31.3h0.5c28.9 0.1 55.9 11.4 76.2 31.9L886 666.7v-596.5h-0.1z"  horiz-adv-x="1024" />

    
    <glyph glyph-name="man" unicode="&#59067;" d="M384 576C207.3 576 64 432.7 64 256s143.3-320 320-320 320 143.3 320 320-143.3 320-320 320z m0-568c-137 0-248 111-248 248s111 248 248 248 248-111 248-248-111-248-248-248zM949.5 821.5C942.9 828 933.9 832 924 832H548c-19.9 0-36-16.1-36-36s16.1-36 36-36h340v-340c0-19.9 16.1-36 36-36s36 16.1 36 36V796c0 9.9-4 18.9-10.5 25.5z"  horiz-adv-x="1024" />

    
    <glyph glyph-name="meh" unicode="&#59069;" d="M512 896C229.2 896 0 666.8 0 384s229.2-512 512-512 512 229.2 512 512S794.8 896 512 896z m311.1-823.1c-40.4-40.4-87.5-72.2-139.9-94.3C629-44.4 571.4-56 512-56c-59.4 0-117 11.6-171.2 34.5-52.4 22.2-99.4 53.9-139.9 94.3-40.4 40.4-72.2 87.5-94.3 139.9C83.6 267 72 324.6 72 384c0 59.4 11.6 117 34.5 171.2 22.2 52.4 53.9 99.4 94.3 139.9 40.4 40.4 87.5 72.2 139.9 94.3C395 812.4 452.6 824 512 824c59.4 0 117-11.6 171.2-34.5 52.4-22.2 99.4-53.9 139.9-94.3 40.4-40.4 72.2-87.5 94.3-139.9C940.4 501 952 443.4 952 384c0-59.4-11.6-117-34.5-171.2-22.2-52.4-53.9-99.5-94.4-139.9zM194.2 513.6a60 60 0 1 1 120 0 60 60 0 1 1-120 0z m515.3 0a60 60 0 1 1 120 0 60 60 0 1 1-120 0z m-66.7-323.4h-264c-19.9 0-36-16.1-36-36s16.1-36 36-36h264c19.9 0 36 16.1 36 36s-16.1 36-36 36z"  horiz-adv-x="1024" />

    
    <glyph glyph-name="meho" unicode="&#59070;" d="M512 896C229.2 896 0 666.8 0 384s229.2-512 512-512 512 229.2 512 512S794.8 896 512 896zM254.2 453.6c-33.1 0-60 26.9-60 60s26.9 60 60 60 60-26.9 60-60-26.9-60-60-60z m388.6-335.4h-264c-19.9 0-36 16.1-36 36s16.1 36 36 36h264c19.9 0 36-16.1 36-36s-16.1-36-36-36z m126.7 335.4c-33.1 0-60 26.9-60 60s26.9 60 60 60 60-26.9 60-60-26.9-60-60-60z"  horiz-adv-x="1024" />

    
    <glyph glyph-name="menu-fold" unicode="&#59071;" d="M112 672h800c26.5 0 48 21.5 48 48s-21.5 48-48 48H112c-26.5 0-48-21.5-48-48s21.5-48 48-48z m0-336h480c26.5 0 48 21.5 48 48s-21.5 48-48 48H112c-26.5 0-48-21.5-48-48s21.5-48 48-48z m669.3 204.4c-1.5 1.3-3.3 2-5.3 2-4.4 0-8-3.6-8-8v-300.3c0-1.9 0.7-3.8 2-5.3 2.9-3.3 8-3.7 11.3-0.8l165.1 144c0.5 0.5 1.1 1 1.5 1.5 5.8 6.7 5.1 16.8-1.5 22.6L781.3 540.4zM912 96H112c-26.5 0-48-21.5-48-48s21.5-48 48-48h800c26.5 0 48 21.5 48 48s-21.5 48-48 48z"  horiz-adv-x="1024" />

    
    <glyph glyph-name="menu-unfold" unicode="&#59072;" d="M113 672h800c26.5 0 48 21.5 48 48s-21.5 48-48 48H113c-26.5 0-48-21.5-48-48s21.5-48 48-48z m800-240H433c-26.5 0-48-21.5-48-48s21.5-48 48-48h480c26.5 0 48 21.5 48 48s-21.5 48-48 48zM243.7 540.4L78.6 396.1c-6.7-5.8-7.3-15.9-1.5-22.6 0.5-0.5 1-1.1 1.5-1.5l165.1-144c3.3-2.9 8.4-2.6 11.3 0.8 1.3 1.5 2 3.3 2 5.3V534.4c0 4.4-3.6 8-8 8-1.9 0-3.8-0.7-5.3-2zM913 96H113c-26.5 0-48-21.5-48-48s21.5-48 48-48h800c26.5 0 48 21.5 48 48s-21.5 48-48 48z"  horiz-adv-x="1024" />

    
    <glyph glyph-name="menufold" unicode="&#59073;" d="M96.8 695.2h828.1c19.9 0 36 16.1 36 36s-16.1 36-36 36H96.8c-19.9 0-36-16.1-36-36s16.1-36 36-36z m826.1-245H357.8c-19.9 0-36-16.1-36-36s16.1-36 36-36h565.1c19.9 0 36 16.1 36 36s-16.2 36-36 36z m2-378H99.8c-19.9 0-36-16.1-36-36s16.1-36 36-36h825.1c19.9 0 36 16.1 36 36s-16.2 36-36 36zM195.1 281c7-6.9 16.1-10.3 25.2-10.3 9.3 0 18.6 3.6 25.7 10.8 13.9 14.2 13.8 37-0.4 50.9l-95.4 93.8 93.7 88.3c14.5 13.6 15.2 36.4 1.5 50.9-13.6 14.5-36.4 15.1-50.9 1.5l-120.9-114c-7.1-6.7-11.2-16-11.3-25.8-0.1-9.8 3.8-19.2 10.8-26.1l122-120z"  horiz-adv-x="1024" />

    
    <glyph glyph-name="menuunfold" unicode="&#59074;" d="M924.9 695.2H96.8c-19.9 0-36 16.1-36 36s16.1 36 36 36h828.1c19.9 0 36-16.1 36-36s-16.2-36-36-36z m-826.1-245h565.1c19.9 0 36-16.1 36-36s-16.1-36-36-36H98.8c-19.9 0-36 16.1-36 36s16.1 36 36 36z m-2-378h825.1c19.9 0 36-16.1 36-36s-16.1-36-36-36H96.8c-19.9 0-36 16.1-36 36s16.1 36 36 36zM826.6 281c-7-6.9-16.1-10.3-25.2-10.3-9.3 0-18.6 3.6-25.7 10.8-13.9 14.2-13.8 37 0.4 50.9l95.4 93.8-93.7 88.3c-14.5 13.6-15.2 36.4-1.5 50.9 13.6 14.5 36.4 15.1 50.9 1.5l120.8-114c7.1-6.7 11.2-16 11.3-25.8 0.1-9.8-3.8-19.2-10.8-26.1L826.6 281z"  horiz-adv-x="1024" />

    
    <glyph glyph-name="message" unicode="&#59075;" d="M292.022504 471.043905c-30.396792 0-54.993624-24.596832-54.993624-54.993624s24.696831-54.994624 54.993624-54.994624c30.396792 0 54.994624 24.597832 54.994624 54.994624s-24.597832 54.993624-54.994624 54.993624z m439.953992 0c-30.396792 0-54.993624-24.596832-54.993624-54.993624s24.696831-54.994624 54.993624-54.994624 54.894625 24.597832 54.994624 54.994624c0 30.396792-24.697831 54.993624-54.994624 54.993624z m-219.976496 0c-30.396792 0-54.994624-24.596832-54.994624-54.993624s24.697831-54.994624 54.994624-54.994624 54.993624 24.597832 54.993624 54.994624S542.296793 471.042905 512 471.042905zM983.350778 604.130995c-25.897823 57.09361-62.993569 108.388259-110.289246 152.383959-46.994679 43.794701-101.689305 78.191465-162.582889 102.189301C647.585073 883.400086 580.79253 896 512 896c-68.79353 0-135.586073-12.598914-198.478643-37.295745-60.894584-23.997836-115.58921-58.394601-162.583889-102.189301-47.194677-43.995699-84.291424-95.190349-110.289246-152.383959C13.752406 544.736401 0.0535 481.642833 0.0535 416.650277c0-116.888201 45.094692-228.676437 127.18613-316.267838l23.097842-196.578656c1.39999-11.998918 8.699941-22.497846 19.497867-27.89681a35.789755 35.789755 0 0 1 16.198889-3.899973c6.098958 0 12.297916 1.599989 17.797879 4.699968l148.283986 84.290424c51.394649-15.797892 105.089282-23.796837 159.783908-23.796838 68.79253 0 135.586073 12.597914 198.478643 37.295745 60.893584 23.997836 115.58921 58.393601 162.582888 102.189302 47.195677 43.995699 84.291424 95.189349 110.289247 152.383958 26.996815 59.393594 40.595722 122.387163 40.595722 187.480718 0.099999 65.092555-13.598907 128.186124-40.495723 187.580718zM917.757226 258.966355c-21.99785-48.394669-53.494634-91.989371-93.789359-129.486115-40.396724-37.595743-87.491402-67.193541-139.986043-87.891399-54.494627-21.496853-112.389232-32.295779-172.081823-32.29578-52.294643 0-103.589292 8.398943-152.18396 24.99683-9.799933 3.299977-20.49786 2.299984-29.397799-2.799981L215.432027-33.802644 197.232152 120.881299c-0.899994 7.998945-4.499969 15.397895-10.098931 21.097855C112.942728 217.17064 72.046007 314.760973 72.046007 416.650277c0 54.693626 11.498921 107.689264 34.195767 157.682922 21.99785 48.395669 53.494634 91.990371 93.790359 129.487115 40.395724 37.595743 87.491402 67.192541 139.986043 87.890399C394.410804 813.108567 452.306408 824.007492 512 824.007492s117.587196-10.898925 172.081824-32.296779c52.494641-20.697859 99.589319-50.194657 139.985043-87.890399 40.195725-37.496744 71.792509-80.991446 93.790359-129.487115 22.697845-49.994658 34.196766-102.989296 34.196766-157.682922-0.099999-54.694626-11.599921-107.689264-34.296766-157.683922z"  horiz-adv-x="1024" />

    
    <glyph glyph-name="minus-circle-o" unicode="&#59076;" d="M512 896C229.2 896 0 666.8 0 384s229.2-512 512-512 512 229.2 512 512S794.8 896 512 896z m311.1-823.1c-40.4-40.4-87.5-72.2-139.9-94.3C629-44.4 571.4-56 512-56s-117 11.6-171.2 34.5c-52.4 22.2-99.4 53.9-139.9 94.3-40.4 40.4-72.2 87.5-94.3 139.9C83.6 267 72 324.6 72 384s11.6 117 34.5 171.2c22.2 52.4 53.9 99.4 94.3 139.9 40.4 40.4 87.5 72.2 139.9 94.3C395 812.4 452.6 824 512 824s117-11.6 171.2-34.5c52.4-22.2 99.4-53.9 139.9-94.3 40.4-40.4 72.2-87.5 94.3-139.9C940.4 501 952 443.4 952 384s-11.6-117-34.5-171.2c-22.2-52.4-53.9-99.5-94.4-139.9zM796.5 348h-569c-19.9 0-36 16.1-36 36s16.1 36 36 36h569c19.9 0 36-16.1 36-36s-16.1-36-36-36z"  horiz-adv-x="1024" />

    
    <glyph glyph-name="minus-circle" unicode="&#59077;" d="M512 896C229.2 896 0 666.8 0 384s229.2-512 512-512 512 229.2 512 512S794.8 896 512 896z m320.5-512c0-19.9-16.1-36-36-36h-569c-19.9 0-36 16.1-36 36s16.1 36 36 36h569c19.9 0 36-16.1 36-36z"  horiz-adv-x="1024" />

    
    <glyph glyph-name="minus-square-o" unicode="&#59078;" d="M888.5 760.5v-753.1h-753V760.5h753m0 72h-753c-39.8 0-72-32.2-72-72v-753.1c0-39.8 32.2-72 72-72h753.1c39.8 0 72 32.2 72 72V760.5c-0.1 39.8-32.3 72-72.1 72zM731.5 347h-441c-19.9 0-36 16.1-36 36s16.1 36 36 36h441c19.9 0 36-16.1 36-36s-16.1-36-36-36z"  horiz-adv-x="1024" />

    
    <glyph glyph-name="minus" unicode="&#59079;" d="M796.5 348h-569c-19.9 0-36 16.1-36 36s16.1 36 36 36h569c19.9 0 36-16.1 36-36s-16.1-36-36-36z"  horiz-adv-x="1024" />

    
    <glyph glyph-name="minus-square" unicode="&#59080;" d="M888.5 832.5h-753c-39.8 0-72-32.2-72-72v-753.1c0-39.8 32.2-72 72-72h753.1c39.8 0 72 32.2 72 72V760.5c-0.1 39.8-32.3 72-72.1 72zM767.5 383c0-19.9-16.1-36-36-36h-441c-19.9 0-36 16.1-36 36s16.1 36 36 36h441c19.9 0 36-16.1 36-36z"  horiz-adv-x="1024" />

    
    <glyph glyph-name="mobile" unicode="&#59081;" d="M760 896H264c-39.8 0-72-32.2-72-72v-880c0-39.8 32.2-72 72-72h496c39.8 0 72 32.2 72 72V824c0 39.8-32.2 72-72 72zM542-64h-60c-19.9 0-34 14.3-34 32s14.1 32 34 32h60c19.9 0 34-14.3 34-32s-14.1-32-34-32z m218 129H264V769h496v-704z"  horiz-adv-x="1024" />

    
    <glyph glyph-name="notification" unicode="&#59082;" d="M922 518.3h-57.3v17.6c0 27-21.3 49-47.4 49H645c-7.2 13.8-18 23.8-32.8 23.8-251.2 0-476.9 217.6-476.9 217.6C128 830.2 120.4 832 113 832c-24.7 0-47.2-19.8-47.2-47.2v-801.1c0-27.6 22.6-47.2 47.2-47.2 8 0 16.3 2.1 24 6.7 0 0 208.5 260.4 478.1 260.4 13.8 0 23.7 9.3 30.3 22.2h4.1c1.4-60.3-12.7-124.5-25.8-170.8-7.6-26.9 3-55.2 26.4-70.5 10.6-6.9 22.7-10.4 34.7-10.4 14.4 0 28.7 5 40.5 14.7 69.2 57.5 95.1 123.6 104.7 168.9 6 28.3 6.5 52.2 5.8 68 3.6 4.6 7 9.6 10.3 14.6 18.7 28.7 18.7 39.8 18.7 45.1V308H922c19.9 0 36 16.1 36 36V482.3c0 19.9-16.1 36-36 36zM584.2 274.6c-61.3-3.9-123.6-19.1-185.7-45.4-56.3-23.9-112.5-57-167.1-98.4-37.6-28.5-69.2-57-93.7-81V729.4c26.4-21 61.8-47.1 103.8-73.1 55.2-34.2 110.9-61.6 165.6-81.3 60.2-21.7 119.4-34.3 176.4-37.5v-1.7c0-2.3 0.2-4.5 0.6-6.6v-253.5c0.1-0.4 0.1-0.7 0.1-1.1z m208.5 16.8c-3.1-6.1-9.6-16.1-13.5-21.1-3.2-2-6.1-4.5-8.5-7.4-6.8-8.2-9.7-19-7.8-29.5 0-0.2 4.1-25.8-3.3-60.8-8.6-40.8-28.4-77.2-58.9-108.6 14.5 58.5 26.7 133.7 18.1 202.3-2.3 18-17.6 31.5-35.7 31.5h-25.6v29.9c0 3.3-0.5 6.5-1.3 9.5V512.9h136.5v-221.5zM886 380h-21.3v66.3H886V380z"  horiz-adv-x="1024" />

    
    <glyph glyph-name="paperclip" unicode="&#59083;" d="M884.7 628.8c-47.1 46.5-109.7 72.3-176.5 72.4h-0.7c-32.1 0-63.4-6-93.2-17.8-30.9-12.3-58.7-30.4-82.5-53.9L298.9 399.3c-26.9-26.6-41.6-62.1-41.5-100 0.1-37.8 15-73.3 42-100 27-26.7 62.8-41.4 101-41.5h0.3c38.1 0 73.8 14.6 100.6 41l204.4 202c6.8 6.7 10.5 15.6 10.5 25 0 9.5-3.7 18.4-10.5 25-6.7 6.7-15.7 10.3-25.2 10.3s-18.5-3.7-25.2-10.3l-204.4-202c-13.3-13.2-31.2-20.4-50.3-20.4h-0.1c-19.3 0.1-37.4 7.5-50.8 20.8-13.5 13.4-21 31.2-21 50.2-0.1 18.9 7.2 36.6 20.6 49.8l232.9 230.3c33.2 32.9 77.8 51 125.4 51h0.5c47.8-0.1 92.7-18.5 126.4-51.7 33.6-33.3 52.2-77.6 52.3-124.8 0.1-47.2-18.2-91.4-51.5-124.3L588.2 85.2c-49.4-48.6-115.4-75.4-185.8-75.4h-0.7c-70.7 0.2-137.1 27.4-186.9 76.6-49.8 49.2-77.3 114.8-77.4 184.7-0.2 69.9 27 135.3 76.4 184.1l319 315.4c6.8 6.7 10.5 15.6 10.5 25 0 9.5-3.7 18.4-10.5 25C526 827.3 517 831 507.5 831s-18.5-3.7-25.2-10.3l-319-315.5c-31.8-31.4-56.4-68.3-73.2-109.5C74 355.9 65.9 313.9 66 270.9c0.1-43.1 8.4-85.1 24.8-124.8 16.9-41.2 41.6-78.1 73.6-109.7 31.8-31.5 69.2-56 110.9-72.8 40-16.1 82.5-24.3 126.2-24.5h0.9c43.4 0 85.5 8 125.3 23.9 41.6 16.5 78.9 40.8 110.7 72.3l247.1 244.4c23.7 23.5 42.1 50.9 54.5 81.6 12 29.7 18.1 60.9 18 93-0.3 66-26.3 128-73.3 174.5z"  horiz-adv-x="1024" />

    
    <glyph glyph-name="pause-circle-o" unicode="&#59084;" d="M512 896C229.2 896 0 666.8 0 384s229.2-512 512-512 512 229.2 512 512S794.8 896 512 896z m311.1-823.1c-40.4-40.4-87.5-72.2-139.9-94.3C629-44.4 571.4-56 512-56c-59.4 0-117 11.6-171.2 34.5-52.4 22.2-99.4 53.9-139.9 94.3-40.4 40.4-72.2 87.5-94.3 139.9C83.6 267 72 324.6 72 384s11.6 117 34.5 171.2c22.2 52.4 53.9 99.4 94.3 139.9 40.4 40.4 87.5 72.2 139.9 94.3C395 812.4 452.6 824 512 824c59.4 0 117-11.6 171.2-34.5 52.4-22.2 99.4-53.9 139.9-94.3 40.4-40.4 72.2-87.5 94.3-139.9C940.4 501 952 443.4 952 384s-11.6-117-34.5-171.2c-22.2-52.4-53.9-99.5-94.4-139.9zM357 576c-19.9 0-36-16.1-36-36v-312c0-19.9 16.1-36 36-36s36 16.1 36 36V540c0 19.9-16.1 36-36 36z m310 0c-19.9 0-36-16.1-36-36v-312c0-19.9 16.1-36 36-36s36 16.1 36 36V540c0 19.9-16.1 36-36 36z"  horiz-adv-x="1024" />

    
    <glyph glyph-name="pause" unicode="&#59085;" d="M325.5 703.5c-19.9 0-36-16.1-36-36v-567c0-19.9 16.1-36 36-36s36 16.1 35 36v567c1 19.9-15.1 36-35 36z m373 0c-19.9 0-36-16.1-36-36v-567c0-19.9 16.1-36 36-36s36 16.1 36 36v567c0 19.9-16.1 36-36 36z"  horiz-adv-x="1024" />

    
    <glyph glyph-name="pause-circle" unicode="&#59086;" d="M512 896C229.2 896 0 666.8 0 384s229.2-512 512-512 512 229.2 512 512S794.8 896 512 896zM393 228c0-19.9-16.1-36-36-36s-36 16.1-36 36V540c0 19.9 16.1 36 36 36s36-16.1 36-36v-312z m310 0c0-19.9-16.1-36-36-36s-36 16.1-36 36V540c0 19.9 16.1 36 36 36s36-16.1 36-36v-312z"  horiz-adv-x="1024" />

    
    </font>
</defs>
</svg>
